<?xml version="1.0" encoding="UTF-8" standalone="no"?>
<svg
   width="366"
   height="71"
   viewBox="0 0 11712 2272"
   fill="none"
   version="1.1"
   id="svg200"
   xml:space="preserve"
   xmlns="http://www.w3.org/2000/svg"
   xmlns:svg="http://www.w3.org/2000/svg"><defs
     id="defs204"><style
   type="text/css"
   id="style368">
   <![CDATA[
    .fil0 {fill:#131414}
    .fil1 {fill:#4FB5B9}
    .fil3 {fill:#717575}
    .fil2 {fill:#FDC446}
   ]]>
  </style><font
   id="FontID1"
   horiz-adv-x="666"
   font-variant="normal"
   style="fill-rule:nonzero"
   font-style="normal"
   font-weight="400"
   horiz-origin-x="0"
   horiz-origin-y="0"
   vert-origin-x="512"
   vert-origin-y="768"
   vert-adv-y="1024">
	<font-face
   font-family="Arial"
   id="font-face421">
		<font-face-src>
			<font-face-name
   name="Arial" />
		</font-face-src>
	</font-face>
   <missing-glyph
   id="missing-glyph425"><path
     d="M0 0z"
     id="path423" /></missing-glyph>
   <glyph
   unicode=" "
   horiz-adv-x="277"
   d=""
   id="glyph427" />
   <glyph
   unicode="."
   horiz-adv-x="277"
   d="M91.0043 0l0 99.9952 99.9952 0 0 -99.9952 -99.9952 0z"
   id="glyph429" />
   <glyph
   unicode="5"
   horiz-adv-x="556"
   d="M42.0057 188.003l91.9912 6.99292c6.83645,-44.8341 22.6638,-78.4989 47.3376,-101.163 24.6618,-22.4953 54.8361,-33.8332 90.3303,-33.8332 42.8362,0 78.6674,15.9959 107.831,47.8311 29.0068,32.0038 43.5102,74.3344 43.5102,127.004 0,50.1661 -13.8414,89.6683 -41.6687,118.663 -27.8393,29.0068 -64.6695,43.4981 -110.503,43.4981 -28.5013,0 -54.0056,-6.49945 -76.6694,-19.4983 -22.4953,-12.9989 -40.1642,-29.8252 -53.1631,-50.5031l-83.0003 11.9999 69.0025 368.001 354.99 0 0 -83.9993 -284.832 0 -38.1662 -193.166c42.8362,30.1743 87.8388,45.1712 134.839,45.1712 62.3345,0 115.004,-21.6648 157.828,-65.0065 42.8362,-43.3296 64.3325,-98.9962 64.3325,-167 0,-64.826 -18.8243,-120.83 -56.497,-167.999 -45.8331,-58.0015 -108.505,-86.9963 -187.834,-86.9963 -64.9945,0 -118.001,18.3308 -159.164,54.8361 -41.1632,36.4932 -64.6695,84.8298 -70.4949,145.166z"
   id="glyph431" />
   <glyph
   unicode="V"
   horiz-adv-x="666"
   d="M280.836 0l-276.503 715.998 102.667 0 186.005 -520.329c14.8284,-41.6687 27.4903,-80.6654 37.4922,-117.171 11.0009,39.1652 23.8313,78.1619 38.5032,117.171l192.997 520.329 96.6732 0 -279.175 -715.998 -98.6592 0z"
   id="glyph433" />
   <glyph
   unicode="a"
   horiz-adv-x="556"
   d="M405 64.9945c-32.6657,-27.8273 -64.164,-47.3256 -94.3383,-58.832 -30.1622,-11.4944 -62.491,-17.1634 -97.1667,-17.1634 -56.9905,0 -100.826,13.8294 -131.493,41.6687 -30.6678,27.6708 -46.0016,63.165 -46.0016,106.338 0,25.3238 5.83747,48.4931 17.3319,69.4959 11.6629,21.0028 26.8403,37.6607 45.4961,50.3346 18.8364,12.6619 39.8392,22.3268 63.3335,28.8262 17.3439,4.50147 43.5102,8.83443 78.3424,13.1674 71.0004,8.34096 123.502,18.4994 156.998,30.1743 0.337008,11.9999 0.493476,19.6668 0.493476,22.8323 0,35.6627 -8.32892,60.83 -24.9988,75.5019 -22.4953,19.8233 -55.9915,29.6567 -100.332,29.6567 -41.5002,0 -72.1679,-7.32993 -91.8348,-21.8333 -19.8233,-14.4914 -34.3267,-40.1642 -43.8231,-77.1629l-86.0093 11.9999c7.83544,36.8302 20.6658,66.6675 38.6717,89.3313 17.9938,22.6638 44.0037,40.0077 77.9934,52.3326 33.8332,12.1684 73.3354,18.3429 118.001,18.3429 44.3407,0 80.5089,-5.17549 108.336,-15.6709 27.6708,-10.5074 48.1681,-23.5063 61.167,-39.3337 12.9989,-15.8394 22.1703,-35.8312 27.5023,-59.9995 2.82846,-14.9969 4.33296,-42.0057 4.33296,-80.8339l0 -116.665c0,-81.5079 1.82947,-132.998 5.50046,-154.831 3.50248,-21.8333 10.8324,-42.6677 21.4963,-62.6715l-92.0033 0c-8.8224,18.4994 -14.4914,40.1642 -16.9948,64.9945zm-7.00496 195.007c-31.9917,-12.9989 -79.9913,-23.9998 -143.999,-33.0027 -36.3247,-5.16345 -61.9975,-11.0009 -76.9944,-17.5004 -14.9969,-6.49945 -26.5033,-15.9959 -34.6637,-28.3328 -8.17245,-12.4934 -12.3369,-26.3348 -12.3369,-41.6687 0,-23.1693 8.83443,-42.6677 26.6598,-58.17 17.8374,-15.4903 43.8352,-23.3258 78.0054,-23.3258 33.8332,0 63.9955,7.32993 90.4988,22.1703 26.3348,14.6599 45.8331,34.8322 58.17,60.3245 9.49641,19.8353 14.1664,48.9986 14.1664,87.5018l0.493476 32.0038z"
   id="glyph435" />
   <glyph
   unicode="d"
   horiz-adv-x="556"
   d="M401.004 0l0 65.837c-32.8342,-51.1651 -81.1709,-76.8379 -144.998,-76.8379 -41.3437,0 -79.3414,11.3379 -113.837,34.1702 -34.6637,22.6638 -61.504,54.4991 -80.6654,95.1687 -19.0049,40.8262 -28.5013,87.6583 -28.5013,140.665 0,51.6586 8.66593,98.5027 25.8293,140.665 17.3319,41.9936 43.1732,74.3344 77.6684,96.6612 34.3387,22.5073 72.9984,33.6768 115.498,33.6768 31.3297,0 59.169,-6.66795 83.5058,-19.8353 24.3248,-13.1674 44.1601,-30.4993 59.494,-51.6706l0 257.498 88.0073 0 0 -715.998 -82.0013 0zm-278.008 258.834c0,-66.3305 14.0099,-115.835 42.1742,-148.669 27.9958,-32.8342 61.167,-49.1671 99.3332,-49.1671 38.4912,0 71.1689,15.6709 98.1657,47.0006 26.8283,31.3297 40.3327,79.1729 40.3327,143.505 0,70.6634 -13.6729,122.659 -41.1632,155.83 -27.3338,33.1712 -61.167,49.6606 -101.343,49.6606 -39.1652,0 -71.8309,-15.8274 -98.1657,-47.6626 -26.1663,-31.8353 -39.3337,-82.0013 -39.3337,-150.498z"
   id="glyph437" />
   <glyph
   unicode="e"
   horiz-adv-x="556"
   d="M419.997 167.999l91.0043 -11.9999c-14.1664,-52.8381 -40.6697,-94.0013 -79.3294,-123.165 -38.6717,-29.1633 -88.0073,-43.8352 -148.175,-43.8352 -75.6584,0 -135.658,23.3378 -179.999,70.0014 -44.3286,46.4951 -66.499,111.995 -66.499,196.163 0,87.0083 22.3388,154.675 67.173,202.674 44.8341,48.1681 102.992,72.1679 174.498,72.1679 69.1589,0 125.668,-23.5063 169.491,-70.6755 43.8352,-47.1691 65.837,-113.5 65.837,-198.991 0,-5.17549 -0.168504,-13.0109 -0.493476,-23.3378l-386.5 0c3.33398,-56.834 19.3298,-100.501 48.3246,-130.663 28.8383,-30.1743 65.0065,-45.3397 108.168,-45.3397 32.1723,0 59.6745,8.49742 82.3384,25.5043 22.8323,16.9948 40.8262,44.1601 54.1621,81.4958zm-287.998 141.002l288.997 0c-3.82745,43.6667 -14.9969,76.3324 -33.1592,98.1657 -27.8393,33.8332 -64.164,50.8281 -108.673,50.8281 -40.3327,0 -74.1659,-13.4924 -101.668,-40.4891 -27.3338,-27.0088 -42.4992,-63.177 -45.4961,-108.505z"
   id="glyph439" />
   <glyph
   unicode="f"
   horiz-adv-x="277"
   d="M86.9963 0l0 451.001 -77.9934 0 0 68.0035 77.9934 0 0 54.9925c0,34.8322 3.009,60.6735 9.17144,77.4999 8.49742,22.6638 23.1693,41.1752 44.4971,55.3416 21.1713,14.1664 50.9966,21.1593 89.3313,21.1593 24.8423,0 52.1761,-2.99697 82.1699,-8.83443l-13.1674 -76.9944c-18.3308,3.16547 -35.4942,4.82644 -51.8271,4.82644 -26.6718,0 -45.5082,-5.65693 -56.6655,-16.9948 -11.0009,-11.3379 -16.5014,-32.4972 -16.5014,-63.502l0 -47.4941 100.994 0 0 -68.0035 -99.9952 0 0 -451.001 -88.0073 0z"
   id="glyph441" />
   <glyph
   unicode="h"
   horiz-adv-x="556"
   d="M66.0055 0l0 715.998 87.9953 0 0 -257.667c40.8382,47.8311 92.3282,71.6744 154.663,71.6744 38.1662,0 71.3374,-7.51047 99.6702,-22.6758 28.1643,-15.1654 48.3366,-35.9997 60.505,-62.6595 12.1564,-26.6718 18.1623,-65.5 18.1623,-116.172l0 -328.499 -87.9953 0 0 328.162c0,43.8352 -9.50845,75.8389 -28.3448,95.8428 -18.9928,19.9918 -45.6646,29.9937 -80.3283,29.9937 -25.8293,0 -50.1661,-6.66795 -72.9984,-20.1603 -22.8323,-13.5044 -38.9967,-31.8353 -48.8301,-55.0046 -9.66492,-23.0008 -14.5034,-54.8361 -14.5034,-95.5058l0 -283.328 -87.9953 0z"
   id="glyph443" />
   <glyph
   unicode="i"
   horiz-adv-x="222"
   d="M66.0055 616.003l0 99.9952 87.9953 0 0 -99.9952 -87.9953 0zm0 -616.003l0 519.005 87.9953 0 0 -519.005 -87.9953 0z"
   id="glyph445" />
   <glyph
   unicode="n"
   horiz-adv-x="556"
   d="M66.0055 0l0 519.005 78.9923 0 0 -73.6724c37.9977,56.497 93.0023,84.6733 164.833,84.6733 31.3297,0 59.9995,-5.66896 86.1658,-16.8384 26.1663,-11.1694 45.8331,-25.9978 58.832,-44.1722 12.9989,-18.1623 22.1703,-39.8272 27.3338,-64.826 3.16547,-16.3329 4.83848,-44.8341 4.83848,-85.5038l0 -318.665 -87.9953 0 0 315.331c0,35.8312 -3.33398,62.6715 -10.1704,80.3404 -6.83645,17.6568 -19.0049,31.8232 -36.3367,42.4992 -17.3319,10.4954 -37.8292,15.8274 -61.167,15.8274 -37.3357,0 -69.4959,-11.8314 -96.6612,-35.6627 -27.1653,-23.6748 -40.6697,-68.834 -40.6697,-135.164l0 -283.171 -87.9953 0z"
   id="glyph447" />
   <glyph
   unicode="o"
   horiz-adv-x="556"
   d="M33.0027 259.496c0,95.8428 26.6598,166.831 80.1598,213.001 44.5092,38.3347 99.0082,57.5081 163.172,57.5081 71.1689,0 129.495,-23.3378 174.835,-70.0014 45.1591,-46.5071 67.835,-111.008 67.835,-193.166 0,-66.6675 -10.0019,-119 -30.0058,-157.166 -20.0039,-38.1662 -49.1671,-67.835 -87.5018,-89.0063 -38.1662,-21.1713 -79.9913,-31.6667 -125.162,-31.6667 -72.6734,0 -131.337,23.1693 -176.171,69.6644 -44.8341,46.5071 -67.1609,113.5 -67.1609,200.833zm89.9933 -0.168504c0,-66.3305 14.5034,-115.991 43.4981,-148.825 29.1753,-33.0027 65.6685,-49.5041 109.841,-49.5041 43.6667,0 80.0034,16.5014 109.167,49.6726 28.9948,33.1592 43.4981,83.6623 43.4981,151.497 0,63.9955 -14.6719,112.501 -43.8352,145.335 -29.1633,33.0027 -65.5,49.4921 -108.83,49.4921 -44.1722,0 -80.6654,-16.3329 -109.841,-49.1671 -28.9948,-32.8342 -43.4981,-82.3263 -43.4981,-148.5z"
   id="glyph449" />
   <glyph
   unicode="r"
   horiz-adv-x="333"
   d="M64.9945 0l0 519.005 79.0044 0 0 -79.5099c20.1724,36.8422 38.8402,61.167 56.0036,72.8419 17.1634,11.8314 35.9997,17.6689 56.497,17.6689 29.6688,0 59.831,-9.33995 90.4988,-27.8393l-31.3297 -81.1709c-21.3398,11.9999 -42.6677,18.0059 -64.0075,18.0059 -19.1613,0 -36.3247,-5.83747 -51.4901,-17.3319 -15.1654,-11.5064 -26.0098,-27.5023 -32.5093,-47.9996 -9.83342,-31.1733 -14.6599,-65.3315 -14.6599,-102.499l0 -271.171 -88.0073 0z"
   id="glyph451" />
   <glyph
   unicode="s"
   horiz-adv-x="499"
   d="M31.0048 155l86.9963 13.9979c4.82644,-34.8322 18.4994,-61.492 40.8382,-80.1598 22.3268,-18.4994 53.6565,-27.8393 93.6642,-27.8393 40.5012,0 70.4949,8.17245 90.1618,24.6738 19.4983,16.3329 29.3318,35.6627 29.3318,57.833 0,19.8233 -8.83443,35.4942 -26.3348,46.8321 -12.3249,7.82341 -42.3307,17.6568 -89.9933,29.8252 -64.3325,16.1764 -108.83,30.1743 -133.84,42.0057 -24.8303,11.9999 -43.6667,28.3328 -56.497,49.3356 -12.8304,20.8343 -19.3298,43.9916 -19.3298,69.3274 0,23.1693 5.33195,44.4971 15.8274,64.164 10.6759,19.6668 24.9988,35.9997 43.1732,48.9986 13.6609,10.0019 32.3287,18.5114 55.8351,25.5043 23.6628,7.00496 48.8301,10.5074 75.8269,10.5074 40.6697,0 76.3324,-5.83747 107,-17.6689 30.8363,-11.6749 53.5001,-27.6708 68.172,-47.6746 14.4914,-20.1603 24.6618,-47.0006 30.1622,-80.6654l-85.9973 -11.9999c-3.83949,27.0088 -15.1654,48.1681 -33.8332,63.3335 -18.6679,15.1654 -45.0026,22.6638 -79.1729,22.6638 -40.1642,0 -68.9904,-6.65591 -86.1658,-19.9918 -17.1634,-13.3359 -25.8293,-29.0068 -25.8293,-46.8321 0,-11.3379 3.50248,-21.6648 10.6639,-30.8363 7.17346,-9.33995 18.3308,-17.1634 33.6647,-23.3378 8.83443,-3.33398 34.5072,-10.8324 77.4999,-22.4953 62.0095,-16.5014 105.339,-30.1622 130.001,-40.6697 24.6738,-10.4954 44.0037,-25.9978 58.0015,-46.0016 14.1664,-20.1603 21.1713,-45.1591 21.1713,-75.1649 0,-29.1633 -8.49742,-56.6655 -25.6728,-82.4948 -17.1634,-25.8413 -41.8251,-45.8331 -73.9974,-59.9995 -32.3287,-14.1664 -68.834,-21.1713 -109.504,-21.1713 -67.3294,0 -118.832,13.9979 -154.157,41.8372 -35.3377,27.9958 -57.833,69.3274 -67.6665,124.163z"
   id="glyph453" />
   <glyph
   unicode="t"
   horiz-adv-x="277"
   d="M257.005 78.4989l11.9999 -77.6684c-24.6738,-5.16345 -46.8442,-7.83544 -66.174,-7.83544 -31.8353,0 -56.497,5.00698 -74.1659,15.1774 -17.5004,10.1584 -29.8373,23.3258 -36.9987,39.8272 -7.16143,16.5014 -10.6639,51.1651 -10.6639,104.003l0 298.999 -65.0065 0 0 68.0035 65.0065 0 0 128.328 87.9953 52.8381 0 -181.166 88.0073 0 0 -68.0035 -88.0073 0 0 -304.006c0,-25.1673 1.5045,-41.3317 4.66997,-48.4931 2.99697,-7.17346 8.00395,-12.8304 14.9969,-17.1754 7.00496,-4.16446 17.0069,-6.33094 30.0058,-6.33094 9.66492,0 22.4953,1.16749 38.3347,3.50248z"
   id="glyph455" />
   <glyph
   unicode="u"
   horiz-adv-x="556"
   d="M405 0l0 77.1629c-40.3327,-58.832 -95.0002,-88.1638 -164.171,-88.1638 -30.4993,0 -59.0005,5.83747 -85.4918,17.5004 -26.5033,11.8314 -46.1701,26.5033 -59.0005,44.1722 -12.8304,17.8253 -21.8333,39.4902 -27.0088,65.163 -3.49044,17.3319 -5.33195,44.6656 -5.33195,82.0013l0 321.169 88.0073 0 0 -287.167c0,-45.8331 1.82947,-76.8379 5.33195,-92.6653 5.50046,-23.1693 17.1634,-41.1752 35.1692,-54.3426 17.8253,-13.1674 39.8272,-19.8353 66.162,-19.8353 26.3348,0 50.9966,6.66795 73.9974,20.1724 23.0008,13.5044 39.3337,32.0038 48.9986,55.161 9.50845,23.1693 14.3349,57.0026 14.3349,101.175l0 277.502 88.0073 0 0 -519.005 -79.0044 0z"
   id="glyph457" />
  </font><font
   id="FontID0"
   horiz-adv-x="644"
   font-variant="normal"
   style="fill-rule:nonzero"
   font-weight="400"
   horiz-origin-x="0"
   horiz-origin-y="0"
   vert-origin-x="512"
   vert-origin-y="768"
   vert-adv-y="1024">
	<font-face
   font-family="Nirmala UI"
   id="font-face460">
		<font-face-src>
			<font-face-name
   name="Nirmala UI" />
		</font-face-src>
	</font-face>
   <missing-glyph
   id="missing-glyph464"><path
     d="M0 0z"
     id="path462" /></missing-glyph>
   <glyph
   unicode="."
   horiz-adv-x="216"
   d="M108.832 -10.6677c-14.9981,0 -27.6662,5.33384 -38.3318,16.0015 -10.4997,10.8335 -15.8336,23.6653 -15.8336,38.6655 0,15.0002 5.33384,27.8342 15.8336,38.8335 10.6655,10.8335 23.3337,16.3331 38.3318,16.3331 15.334,0 28.3338,-5.49965 39.1673,-16.3331 10.6677,-10.9993 15.9994,-23.8333 15.9994,-38.8335 0,-15.0002 -5.33169,-27.832 -15.9994,-38.6655 -10.8335,-10.6677 -23.8333,-16.0015 -39.1673,-16.0015z"
   id="glyph466" />
   <glyph
   unicode="5"
   horiz-adv-x="539"
   d="M473.166 213.834c0,-34.1672 -5.83342,-65.001 -17.6661,-92.6672 -11.6668,-27.6662 -28.3338,-51.4995 -50.0008,-71.334 -21.6648,-19.8323 -47.8323,-35.1663 -78.3324,-45.9998 -30.6658,-10.6655 -64.6672,-15.9994 -102,-15.9994 -65.1668,0 -113.501,9.66638 -145.168,29.3329l0 84.8333c47.6687,-30.5 96.3344,-45.834 146.001,-45.834 25.5,0 48.3319,3.66715 68.666,11.1673 20.3341,7.50011 37.6664,17.9998 52.0012,31.3334 14.3327,13.3335 25.332,29.5009 33.0001,48.3341 7.66592,18.8332 11.4989,39.4989 11.4989,61.9992 0,45.5003 -15.334,81.3341 -45.9998,107.168 -30.5,25.8316 -74.999,38.8335 -133.167,38.8335 -9.49842,0 -19.4986,-0.167961 -29.8325,-0.50173 -10.4997,-0.331616 -20.8336,-0.665385 -31.3334,-1.16496 -10.3339,-0.50173 -20.4999,-1.16711 -30.5,-1.83465 -9.83434,-0.499577 -19.0011,-1.33292 -27.0008,-2.33208l23.8333 351 323.833 0 0 -72.1673 -254.5 0 -14.1669 -205.666c10.5019,0.665385 21.5012,1.33292 33.168,1.66669 11.8327,0.499577 22.1666,0.833346 31.3334,0.833346 37.1668,0 70.3327,-4.83427 99.6656,-14.6665 29.1671,-9.83434 53.9995,-23.6675 74.3336,-41.8353 20.3341,-17.9998 35.8339,-40.1664 46.4994,-66.3317 10.5019,-26.1675 15.8336,-55.5004 15.8336,-88.1667z"
   id="glyph468" />
   <glyph
   unicode="D"
   horiz-adv-x="701"
   d="M91.8339 0l0 700.168 193.332 0c246.668,0 370.167,-113.667 370.167,-341.334 0,-108.001 -34.333,-194.835 -102.833,-260.501 -68.5002,-65.4984 -160.166,-98.3327 -275.166,-98.3327l-185.5 0zm81.9995 626l0 -551.834 104.5 0c91.8339,0 163.168,24.6688 214.334,73.834 51.1657,49.1674 76.6657,118.835 76.6657,209 0,179.333 -95.333,269.001 -286.165,269.001l-109.334 0z"
   id="glyph470" />
   <glyph
   unicode="I"
   horiz-adv-x="266"
   d="M173.833 0l-81.9995 0 0 700.168 81.9995 0 0 -700.168z"
   id="glyph472" />
   <glyph
   unicode="L"
   horiz-adv-x="470"
   d="M455 0l-363.167 0 0 700.168 81.9995 0 0 -626.002 281.167 0 0 -74.1656z"
   id="glyph474" />
   <glyph
   unicode="O"
   horiz-adv-x="753"
   d="M374 -11.6668c-99.334,0 -178.833,32.6663 -238.501,98.1669 -59.6671,65.3326 -89.6654,150.5 -89.6654,255.333 0,112.668 30.5,202.501 91.3321,269.5 60.8343,66.9993 143.833,100.667 248.667,100.667 96.6681,0 174.501,-32.6663 233.501,-97.6673 59.1676,-65.1668 88.6663,-150.334 88.6663,-255.499 0,-114.168 -30.3321,-204.501 -90.8325,-271.001 -60.5005,-66.3339 -141.501,-99.4998 -243.167,-99.4998zm5.83342 649.334c-73.5002,0 -133.167,-26.4991 -179.167,-79.4995 -45.8319,-53.1683 -68.8339,-122.833 -68.8339,-209 0,-86.3342 22.3345,-155.668 67.1672,-208.334 44.6669,-52.5008 103.167,-78.8341 175,-78.8341 76.8336,0 137.334,25.0004 181.667,75.1669 44.3331,50.1666 66.3317,120.333 66.3317,210.501 0,92.4992 -21.3332,163.833 -64.3313,214.334 -43.0002,50.5003 -102.334,75.6665 -177.834,75.6665z"
   id="glyph476" />
   <glyph
   unicode="S"
   horiz-adv-x="531"
   d="M58.9996 28.3338l0 96.666c11.1673,-9.83219 24.5008,-18.4994 39.8348,-26.3333 15.4998,-7.83388 31.833,-14.5006 48.8315,-19.8323 17.1665,-5.33384 34.3351,-9.50057 51.5016,-12.5002 17.3323,-2.83381 33.3317,-4.33469 47.8323,-4.33469 50.5003,0 88.1667,9.33477 113.167,28.168 24.8324,18.6652 37.3326,45.6661 37.3326,80.6666 0,18.999 -4.16673,35.3321 -12.5002,49.3332 -8.33346,13.9989 -19.8323,26.8329 -34.333,38.3339 -14.6665,11.6668 -31.9988,22.6661 -51.9991,33.3317 -20.1683,10.4997 -41.6673,21.667 -64.833,33.3338 -24.335,12.3344 -47.1669,25.0004 -68.3344,37.6664 -21.1674,12.6681 -39.4989,26.6671 -55.1666,42.0011 -15.6656,15.3318 -27.8342,32.6663 -36.833,51.9991 -9.001,19.3328 -13.4993,42.0011 -13.4993,68.0006 0,32.0009 6.99838,59.6671 20.9995,83.3324 13.9989,23.6675 32.5005,43.0002 55.1666,58.3342 22.832,15.334 48.8336,26.6671 78.0007,34.1672 28.9991,7.50011 58.8316,11.3331 88.9979,11.3331 69.0019,0 119.334,-8.33346 151.001,-25.0004l0 -92.3334c-41.3335,28.6675 -94.4997,43.0002 -159.167,43.0002 -17.9998,0 -35.8339,-1.8325 -53.8337,-5.49965 -17.834,-3.83296 -33.8334,-10.0002 -47.8323,-18.3336 -14.0011,-8.49927 -25.3341,-19.5007 -34.1672,-32.8343 -8.83304,-13.3335 -13.1677,-29.4987 -13.1677,-48.8336 0,-17.8319 3.33338,-33.3317 10.0002,-46.3314 6.66677,-13.0019 16.5011,-24.8346 29.5009,-35.6681 12.9998,-10.6655 28.9991,-21.1653 47.6665,-31.1654 18.6674,-10.1681 40.3322,-21.1674 64.6672,-33.168 25.1662,-12.5002 48.8336,-25.5 71.3318,-39.1651 22.5003,-13.6673 42.1669,-28.8333 59.0018,-45.3344 16.9985,-16.6669 30.3321,-35.0005 40.3322,-55.1666 10.0002,-20.1661 14.8344,-43.334 14.8344,-69.3335 0,-34.4988 -6.66677,-63.8339 -20.1683,-87.6671 -13.4993,-23.9991 -31.833,-43.4998 -54.6649,-58.3321 -22.9999,-15.0002 -49.5012,-25.8337 -79.3337,-32.5005 -30.0005,-6.66677 -61.4996,-10.0002 -94.8335,-10.0002 -11.0015,0 -24.6666,0.833346 -40.9998,2.66585 -16.1673,1.83465 -32.8343,4.33469 -49.8349,7.83388 -16.8327,3.33338 -32.8321,7.66807 -47.9981,12.6681 -15.1682,4.99792 -27.3346,10.6655 -36.5014,16.8327z"
   id="glyph478" />
  </font>
</defs>
</svg>
