<svg xmlns="http://www.w3.org/2000/svg" data-name="Group 586" viewBox="0 0 1880.711 920.564"><defs><clipPath id="a"><path fill="#fafafa" d="M0 0h1880.711v920.564H0z" data-name="Rectangle 415"/></clipPath></defs><g fill="#fafafa" clip-path="url(#a)" data-name="Group 585"><path d="M840.407 274.093c-1.895-.467-3.2.636-4.282 1.647 1.829.276.44 1.268-.4 1.81-.923 1.765 2.746-.032 2.734 1.616 2.743.745 6.9-5.429 1.944-5.073" data-name="Path 1513"/><path d="M842.252 273.27c-.148 2.362 2.659.708 3.853.4 0 0-3.194-.659-3.853-.4" data-name="Path 1514"/><path d="M849.992 268.564c-.581.215-3.239.726-2.437 1.943 1.917 1.628 2.234-.415 2.437-1.943" data-name="Path 1515"/><path d="M852.298 269.515c-3.3 2.134.654 6.3.825 1.614 3.85 1.159 1.981-2.832-.825-1.614" data-name="Path 1516"/><path d="M847.786 259.008c-2.982-1.244-.285-4.427 1.252-2.9 1.292 1.273-.462 1.676 1.549 2.866.844 1.663-3.115 1.805-2.8.033" data-name="Path 1517"/><path d="M848.145 249.613c-3.182.158-6.682 5.636-2.439 5.379 1.306-1.531 4.831-3.371 2.439-5.379" data-name="Path 1518"/><path d="M842.956 255.68c-1.86 1.076-.584 2.432.687 1.563.251-.437-.437-1.687-.687-1.563" data-name="Path 1519"/><path d="M842.204 258.495c-.656.587.121 2.186 1 1.877 1.078-.767.552-2.692-1-1.877" data-name="Path 1520"/><path d="M863.468 246.737c-1.277-.888.3-.467.688-.437.045-.9-1.4-3.239.939-1.815-.408 1.059.6 1.549 1.376 1.064 1.852 1.3-1.957 2.367-3 1.188" data-name="Path 1521"/><path d="M873.6 234.23c-2.357 2.539 2.046 1.525.75 4.127 2.19-.346-.085-3.532 1.314-4.378 1.445-1.592-1.246-2.226-2.064.25" data-name="Path 1522"/><path d="M794.88 443.741c-1.7.242-3.062 2.564-.877 3.257 1.553-.566 3.85-4.887.877-3.257" data-name="Path 1523"/><path d="M790.622 444.807c-.912.58-.116 2.038.565 1.879.295-.477.3-1.947-.565-1.879" data-name="Path 1524"/><path d="M787.93 443.487c-1.713-.239-.925-2.743.5-2.442 1.217.419.664 2.574-.5 2.442" data-name="Path 1525"/><path d="M798.763 445.37c-2.451.659.276 3.4 1.566 2.379 1.659-1.662-.169-2.909-1.566-2.379" data-name="Path 1526"/><path d="M808.031 442.301c-.667 1.454-2.5 1.513-2.131 3-1.778 4.083 7.477-2.654 2.131-3" data-name="Path 1527"/><path d="M811.037 438.858c-1.19.939-1.912.522-2.63 1.628-.26 3.3 4.893-1.376 2.63-1.628" data-name="Path 1528"/><path d="M786.74 447.248c-1.013.632-.094.284 0 1.064.649 2.651 3.051-3.14 0-1.064" data-name="Path 1529"/><path d="M792.126 417.878c-.986.247-.853 1.569-.689 2.067 2.341.592 4.249-3.032.689-2.067" data-name="Path 1530"/><path d="M1735.976 248.759c.34-.206 3.711-6.349 6.129-4.215 1.745 3.44-5.1 2.867-6.129 4.215" data-name="Path 1531"/><path d="M1750.724 273.279c-6.583-1.03.086 3.033 1.724 4.213l-1.724-4.213" data-name="Path 1532"/><path d="M1756.855 276.534c-.131.061 3.657 3.893 3.448 3.257 0 0-1.341-3.831-3.448-3.257" data-name="Path 1533"/><path d="M1645.531 346.938c-1.9.571-2.537 2.885-3.445 4.233 1.135-.427 6.556-2.875 3.445-4.233" data-name="Path 1534"/><path d="M1648.73 348.021c1.6-3.276 8.894-8.445 10.382-6.792-2.732 2.426-7.363 4.19-10.382 6.792" data-name="Path 1535"/><path d="M1649.075 350.874c-.933-.043-1.364 1.679-.836 1.821.447-.238 2.343-1.438.836-1.821" data-name="Path 1536"/><path d="M1662.532 339.279c.667-.442 4.974-3.7 6.191-3.513-.558.9-5.068 6.122-6.191 3.513" data-name="Path 1537"/><path d="M1674.58 331.917c.837-.837 1.348-2.738 1.84-2.175 1.172 1.338-1.84 2.175-1.84 2.175" data-name="Path 1538"/><path d="M1685.793 319.368c.167-.5 1.171-1.34 1.84-1.172s-1.84 1.172-1.84 1.172" data-name="Path 1539"/><path d="M1688.972 315.35s.335-2.51 1.338-2.343-.167 3.011-1.338 2.343" data-name="Path 1540"/><path d="M1693.159 310.161c-1.5-1.364 2.351-2.14 2.343-2.51 4.408-5.617.339 4.225-2.343 2.51" data-name="Path 1541"/><path d="M1693.992 305.141c-.514.128-.167-1.172.67-.837s0 .67-.67.837" data-name="Path 1542"/><path d="M1866.278 207.242c-2.011 2.922.788 5.052 3.534 2.8 3.949 1.161 6.621 4.67 10.9 1.914-4.255-3.974-10.011-2.781-14.433-4.711" data-name="Path 1543"/><path d="M1451.854 272.552c-5.494 15.136-11.88 17.71-22.4 25.434-2.7 2.057-4.989-1.62-4.745 2.847 11.859-2.014 23.664-10.84 28.85-19.737.215-3.678 4.912-15.993-1.708-8.543" data-name="Path 1544"/><path d="M506.331 139.816c-.81-6.877-10.275-2.526-12.3-1.343-.021-4.028-1.8.537-1.054-4.068-6.743 1.4-3.014.565-1.941-2.706-1.022-2.687-5.823.175-5.834-3.764a2.462 2.462 0 0 0-1.879-1.177c-4.481-2.257-18.989-3.934-15.709 4.829-2.311 2.84-1.247-3.59-3.539-3.357-.8 1.7-3.867-1.986-4.228.123.362 1.895-3.454 4.914-4.123 2.939.478-2.926 5.225-6.907 1.767-8.119-3.874-8.722-7.96-11.022-17.768-5.824-7.711.509-14.4 10.971-3.7 11.524.255 2.43.6.976-1.059.584-3.8-.3-6.355 4.507-1.888 5.78 3.879-.132 4.295 4.035.351 2.4-12.908-7.99-.834-8.43-7.529-11.411 4.148-3.993-.574-3.926 2.59-5.886 4.2-3.037 5.569-3.169 6.831-5.18-16.793-10.916-42.727 25.289-16.513 24.938-12.688 1.159-6.663 3.7-1.381 8.488 1.177.477-1.644.949 2.119 0 3.769-.933 2.592-1.652 3.769-.933 6.712 6.166 15.226 3.322 24.474 4.228 4.332 3.984 3.582.373 1.644-1.41 3.875.158 25.909 4.8 14.773-2.068-.488-1.762.625-.593 1.3-1.344 1.584-2.445 2.118 3.818 6.231 2.475 1.793 1.523-1.376 5.414 3.362 2.7a2.055 2.055 0 0 1 1.754 2.537c4.094 1.236 10.867 6.205 1.887 5.174-3.969 4.3 4.266 2.775 6.3.585 4.607-.954 3.721 7.236 6.706 3.186 10.272 10.019 12.017 12.916-1.946 22 3.193 5.03 6.438 3.9-1.423 7.419-1.419-.718-4.84.7-3.939 1.883 1.566-.3 1.421.041.9 1.056-2.866.5-5.936-5.9-11.138-3.115-4.8 4.406-5.877 9.945 2.542 8.472 4.641 2.5 4.915-2.454 7.347-1.421 1.756 1.955 7.379-.085 3.3-1.813.314-5.555 4.508 5.687 4.823 1.815 2.478-2.741 3.3 4.376 6.295 3.293-2.823.195-.431 1.5.816 1.534.265 1.351-1.069 1.389.183 2.062 1.738-.561 3.627-1.041 5.406 0 3.332 2.1-3.442.954-2.174 2.88 5.253 4.218 4.218.021 6.293 6.244 3.06 1.434 2.611-4.55 6.239-.287 3.579 4.159 10.191 2.764 14.309 5.22 8.877 2.319-3.545-8.618-4.009-8.521-5.008-1.595-2.762-2.269-5.819-4.483-.963-5.2 12.883 5.912 15.415 4.952.3.648 4.553 5.231 4.4 2.832-4.96-6.086 1.828.321-.284-4.96 1.938-1.852 1.729-5.891-1.537-7.7-2.2-3.185 2.073-2.351-3.119-6.057-1.48 2.038-2.1-.368-3.41-.356-2.4.5-1.335-2.8-3.365-3.7-1.271-3.85-5.009-3.013-6.874-7.124 1.421 1.092 6.842 4.657 6.068.529-.509.056-2.7-1.046-1.77-1.655 2.588.467 2.088-.971 2.762-2.285 3.569 1.357 5.481 5.373 9.409 6.229 1.823 1.7 1.035 6.336 4.587 5.013 9.074 5.96 3.26-1.675 6.008-3.823 1.858 1.679 4.48-1.844 5.531-3.129.306-.593-2.29-1.968-.941-2.7 2.52.1 5.65 1.9 6.241-1.757.507-3.615-5.74-4.915-7.708-3.237-2.761.376 2.823-2.611.234-2.95-2.269-1.494-4.7-5.537-7.417-1.639-3.014 3.81 1.426-4.5-2.467-3.716-1.531-1.37-2.287.132-3.59-1.47-1.6-.4-.443 1.269-1.944.95-1.891-.188-1.22.584-2.118 1.056-2.58-1.15 2.338-2.343.588-4.413-1.973-3.759-5.456-.455-7.706.533-1.174 2.729.928-2.215-1.356-.6-2.459 1.386 1.816-1.024-4.11-3.759-3.644-.236-.482-.976-.3-2.649.874-.223 3.459.33 2.354-1.472 2.132-.419 5.132 1.34 7-.057-.869-3.85-9.074-1.51-8.641-4.414 2.66-.667 8.36-.644 4.875-4.419-2.048-4.2-7.283 3.135-7.24.126.646-1.067-.74-1.242-1.166-1.124 7.955-3.52-2.094-6.595-5.827-4.11 2.807-4.47-3.556.9-3.714-.659 1.348-.963 2.359-3.1.536-3.7-1.163-.533-5.678 3.5-2.823-.716" data-name="Path 1545"/><path d="M224.303 132.814c5.789.488 8.657 11.76 15.178 7.239 12.3-3.855 7.827-7.668 18.533-15 21.755-5.789 19.446-16.856-2.287-14.484-2.824-3.448-7.633 1.791-10.947-4.229-2.544.534-3.242 1.689-6.706 0-5.344-.263-6.4 1.646-12.361 1.767 11.889 6.156-13.894 27.324-1.41 24.708" data-name="Path 1546"/><path d="M342.485 153.294c3.26-.923 10.44 4.139 8.389-2.741-4.539-1.845-7.006-2.724-10.331-5.552-.619-.182.27-1.416-.88-.529-2.207 2.489-8.519-4.166-7.242-5.738 3.78-4.062-6.11-9.816-5.292-15.01 9.634-5.382 3.009-14.224-7.775-7.325 4.829 2.193 8.652 8.518.362 2.112-1.582 3.009-3.03-.781-4.856-.085-3.655 2-1.97 8.116.611 9.9 3.2 2.984-.057 10.194-3 5.027-.651-4.944-5.422-10.044-10.5-11.57-5.864.773 1.724 2.537 1.85 4.413-3.477-.209-6.071 2.112-8.653 2.3.938-1.451 3.411-3.21.888-3.8-14.562-7.154-9.008 3.236-16.155 1.5 10.068-13.876-12.706-4.805-18.441-1.405-7.4 4.245 3.681 4.261-3.979 6.352-5.832 6.122 1.167 4.347 4.764 4.59-1.663 1.754-1.689 2.4 1.239 2.472 14.465-3.515 11.121.209-.435 2.03-18.694 8.4 39.358 2.638 26.027 8.2-30.07-1.513-31.351 5.711-4.845 12.715 4.3 8.964 21.874 1.609 30.088.1 15.232-8.362 2.367-1 12.634-2.131 4.534 4.446 15.576 4.614 19.938 0-2.982-1.692-3.491-4.8-6.26-1.051-.445-1.258.491-2.139-1.419-2.3 3.207-.191 2.169.378 3.268-2.472" data-name="Path 1547"/><path d="M399.117 26.739c3.418 1.885 6.832-2.549 10.017-1.233-.644 1.266-5.41 1.239-5.121 3.043 1.611 2.282 16.114-3.8 5.492.566-4 1.935-4.17 5.622.769 4.741 9.623 9.472 13.192.965 20.235.6-13.084 6.47 9.708 8.1 12.125 2.1 1.663-1.129-.159 2.392.571 2.252 11.063 4.333 23.445-8.416 32.3-9.7-2.848.665-13.628 6.457-6.37 6.6 11.775-.684 1.284.314-3.9 1.319a34.1 34.1 0 0 1-18.23 4.4c-6.736 2.491 7.513 4.88 5.123 7.587 1.649 1.464 7.389.062 8.9.866-8.685 2.437-11.763-2.678-18.336-5.587-2.55-2.088-22.629-4.882-16.108 2.1 6.078 4.708 16.814 13.846 25.4 11.6-.5 1.922-8.468 1.536-4.95 2.245 6.2 5.791-17.64-6.083-23.077 1.281-4.947 2.544-1.11 9.271 2.738 5.408 1.45-1.4 2.319 3.308 5.3 1.2 2.778-.234 1.93-5.261 3.968-4.276-1.8 2.588 4.88 3.663 1.126 4.21-4.8.432-7.256 2.084-2.378 2.947-2.477 3.06-1.03 2.77 2.234 3.145 5.912 2.008 6.5-3.767 10.173-4.7-3.231 10.226-15.288 7.057-21.672 1.179-8.55-1.966-9.21 5.169-1.805 6.894.163 3.244-6.492-.373-8.328 2.172-8.232.943-2.437 12.089.093 4.18 1.3-.072-.638 3.207 1.88 3.287 6.078-2.466 4.655 1.906 10.441-1.169.132 2.094 8.232 3.32 7.414 0 1.505.671 3.751 1.711 3.454-1.037 4.332 3.4 3.97-.6 6.9 2.627 1.635 2.505 5.473 1.295 5.52-1.364-.372-.609-3.644-1.718-1.595-2.349 1.987 1.365 3.387 2.86 6.059 2.349 1.6 1.391-2.177 5.424 3.863 2.569 4.387-2.761 17.149-1.439 10.87-9.063-3.188 1.919-7.2 2.8-5.323-1.746 3.783-2.587 9.161-1.966 5.006-7.84 4.368-.558 9.612 1.226 13.734-1.368-.978-2.839 4.628-3.649-.343-4.973 4.48-1.947 10.318-2.161-1.03-6.161 11.5.989 5.9-4.272-2.009-3.915-1.458.36-.96-.938-.976-1.593 3.033 2.142 22.694 1.226 14.541-3.866 3.821.93 15.334 4.036 13.808-3.206 4.233-.292.911-1.429-1.362-.864-2.284-.311 4.9-.683 5.576-1.367-1.568-3.383 3.172-1.029 5.376-2.553 1.759-4.263 35.089-15.109 21.654-13.441-27.134 4.743 14.506-3.895 19.111-7.87 2.606-.788 1.56-1.37-.049-3.2-3.151-2.858-6.011.718-8.824-.877a5.21 5.21 0 0 0-3.174-2.3c7.26-6.711-21.509.939-24.715.529-9.259 1.795 20.331-4.399 6.612-3.631-7.548.064-15.3-4.58-22.23-1.823 4.183 4.028-1.376.7-2.595-.466-3.3-.175-12.786-.333-7.3 3.69-4.759-2.381-33.663-7.936-14.333 2.415 2.253 4.118-7.193-3.075-7.462-3.584-3.111.8-18.544-3.424-12.57 1.944 3.759 2.166-15.731-4.662-6.314 1.746 2.883 1.868-5.483-1.974-6.3.633 2.107 1.92-1.153.986-1.942 1.746.246 3.245 8.046 2.845 10.617 4.262 5.939.576 9.706 6.245.943.914-3.531.759-12.8-5.175-12.1-2.089 7.314 4.826-11.733-4.761-14.648-3.922-.947 5.32.373 2.2-5.094 3.177-5.344 2.019 4.505 1.357 6.008 2.172 3.615.869 2.413 2.606.029 2.491-2.013-1.454-6.95-4.065-8.154-.922-2.714-.649-5.521-3.159-9.349-1.3-3 4.3-17.222.343-15.915 6.172" data-name="Path 1548"/><path d="M375.574 48.348c.458 5.135 10.768-1.48 8.572 1.938-2.169.576-4.25-.284-5.477.714 1.41 8.462 15.6-1.328 16.685 2.389-.3 1.52 5.5-1.045 2.12.973-2.094-.1-5.789 1-1.592 1.222 17.085.18-20-.319-7.414 4.5 1.285 1.413 3.813-.64 3.448 2.115 1.49 1.22 4.45-.748 6.177.708-13.7 1.946 8.264 6.2 8.73 4.686-2.51-7.186 5.649 3.223 4.068-2.2 2.135 1.667 5.108 3.566 4.939-.711-2-.794 3.842-2.491 2.2-.094 3.662-.965-4.952-7.416 1.678-6-4.794 8.248 7.984-2.266 10.33-1.762 5.982.056 2.091-8.752-1.069-5.113-1.587-3.147-7.13 1.225-4.941-3.006-1.749-1.745-1.907-5.15-6.1-3.938 2.244-1 4.375-1.277 1.952-3.3-10.3-4.708.573 6-6.611 2.47-1.662-4.317-21.324-18.064-27.628-14.3-2.183 3.971 6.315.595 6.609 3.175-1.45.161-5.738-.4-6.52 0-.463 3.145-7.228-2.344-6.087 3.008 1.017 2.049 5.048.185 5.807 2.032-.955 2.475-10.014-2.893-7.749 1.053-2.435 2.281 1.745 2.662-3.1 2.556-2.533 3.266 7.658 1.987 9.62 2.915 4.593-2.8-2.638 2.5-4.939.963-4-.392-8.317-2.749-3.717 3.006" data-name="Path 1549"/><path d="M364.716 62.908c-1.663 4.662 11.326 4.568 2.655 5.389a3.922 3.922 0 0 1 2.821 2.56c3.009 1.407 5.864-.683 9.717-.8 4.638-.726-.821-3.453 2.3-4.406-.5-1.218-20.438-10.676-17.49-2.743" data-name="Path 1550"/><path d="M372.494 71.565c-.262.354 1.23 0 0 0" data-name="Path 1551"/><path d="M376.997 74.999c2.539-.021 14.575 2.6 14.125-2.024-1.081-3.507-21.957-1.249-14.125 2.024" data-name="Path 1552"/><path d="M404.351 72.631c-6.537 1.065-1.568 3.025-2.118 5.285 1.973 1.249 1.249-1.871 6 .529 3.754-.852.523-6.917-3.887-5.815" data-name="Path 1553"/><path d="M389.88 86.123c7.559-4.82-18.24-9.553-17.557-3.17 1.547 2.389 17.262 10.3 17.557 3.17" data-name="Path 1554"/><path d="M404.444 105.897c7.668 4.316 11.1-6.346 11.564 1.5 7.623-.083 14.269-1.78 20.74-.265 5.166 1.163 6.909-5.331 7.323-1.236 8.451 4.485 12.888-1 18.8-2.738 1.246-1.1-.043-.9-.8-1.132-1.478-1.533 1.493-2.911.8-4.6-12.782-8.535-26.067-1.777-38.473-.968-2.483-1.442-9.406-1.978-10.783-.541-1.233 3.067-1.285-3.5-2.727-3.253-2.427.217-1.557-1.252-3.178-1.773-1.81 0-2.44 1.054-2.214-.435-4.135-1.775 3.2-.713 4.681-.971 3.687-.531-.442-2.306-2.025-1.938-6.371-7.456-26.7-3.381-11.392 5.2 1.255 2.469-.274 3.191-1.41 4.762-.211 3.864 5.191 11.328 8.3 6.363-.019.9-.325 1.434.794 2.027" data-name="Path 1555"/><path d="M327.566 57.177c4.641-.549-.33 3.636 4.587 2.285-.383-1.746 3.91-2.017 2.212-.26.185 1.625 3.571.632 3.1 2.743.222-.558-2.314-.3-2.124-.268 1.226.22 2.06 1.507-.094 1.23-13.172-2.925-1.386 7.547 5.3 1.949.263 2.729 5.264-.493 5.21 2.737 1.081-.085 4.057-.927 4.151.7 2.338 4.161 13.789 5.729 10.669-.879-4.843-2.549-.952-3.325-5.727-7.856-5.642 1.313-5.108-3.963-10.6-2.738-1.233.5-3.134 3.29-2.82.974 2-7.311-22.366-4.028-13.864-.62" data-name="Path 1556"/><path d="M343.455 72.534c2.147.046 4.292 1 6.614.1-.4-3.713-9.974-3.381-6.614-.1" data-name="Path 1557"/><path d="M375.76 156.909c4.094 2.679 6.328-1.509 1.153-2.027-5.025 2.368-6.462-2.126-11.125-2.115-5.2 4.55 1.861 4.552-7.588 7.054-1.557 3.145 4.339 1.367 5.027 1.938-.906 2.453 4.214.907 5.569 2.308 3-.392 5.784 3.553 7.842-.1 10.081-2.217-3.947-3.617-.877-7.062" data-name="Path 1558"/><path d="M373.817 127.872c2.757-2-2.654-3.249-.094-4.678 2.287-2.424-3.667-3.883-3.172-.614.7.534 3.035 1.151.258 2.116-1.931-3.416-2.233-3.944-6.435-1.938 1.609-3.046 12.363-8.459 2.829-9.712 2.938-3.926-6.284-.836-7.676-.175-.982.394 3.411 1.907 1.046 2.21-9.776-5.154-2.3.389-9.347-1.33-2.127.9-.136 2.067-3.622 2.56-3.3 3.724 9.657 4.475 5.821 5.914-1.238-.26-.177.442.266 1.5-4.437 5.351-7.454-6.322-12.178-.7-.477 4.647 6.754 6.178 9.006 6.96 4.19.325 9 9.521 12.181 8.65 4.859.475.8-3.976 2.383-4.593 1 5.009 10.261.545 8.733-6.175" data-name="Path 1559"/><path d="M369.403 122.223c.442.357-.612-1.139 0 0" data-name="Path 1560"/><path d="m368.858 93.794.01.011c.533.6-.209-.442-.01-.011" data-name="Path 1561"/><path d="M361.373 84.98c-5.124 1.354.442-4.7-9.88-.887.3-2.193-3.9-.659-3.451.981 2.852-.724 13.388 9.993 5.65 5.194-1.906-1.139-2.741-1.2-4.5-3.344-2.2-1.823-8.165.373-3.526 3.344 1.013.574 5.988 4.108 2.738 3.276-.844.142-3.82-1.364-2.922-2.741-3.584.521-5.248-4.982-9.183-6.352-3-1.448-7.661.156-3.525 3.349 1.132.011-2.571 4.631.36 3.185 2.319-.137 2.761-.419 3.164 1.944 9.486.748.989 3.569 6.713 3.7 1.78.088 2.073-2.44 4.332-.529 2.944.962 11.7-3.966 5.121 1.151 1.493 6.564 2.85 5.15 9.269 4.584 2.206 1.261 7.358-.7 6-2.917-.611-.907-2.022.986-1.239-1.848-.088-2.655 4.2 4.084 2.915-.706.52-2.06.174-.89-.891-3.355.088-4.338-.609-11.873-7.143-8.03" data-name="Path 1562"/><path d="M374.259 97.336c6.6-2.571-2.239-2.891-3.1-1.153-.451 1.4 2.3 2 3.1 1.153" data-name="Path 1563"/><path d="M385.026 106.074c8.693 1.593 4.19-10.8-1.5-10.594-13.435 1.376-10.816 9.014 1.5 10.594" data-name="Path 1564"/><path d="M378.756 105.01c-3.534.663-.461 3.194 1.241 2.218-.472-2.088.917-.823-1.241-2.218" data-name="Path 1565"/><path d="M382.909 93.274c.435.424 1.713.129 2.384.179.6-1.88-4.526-3.038-2.384-.179" data-name="Path 1566"/><path d="M273.735 87.283c-4.084 2.392 3.781 1.7 4.317 1.936-2.734.879-7.111-1.6-9.175.968-2.34 5.11 8.673-.451 7.762 2.477-10.363-.4-15.695 4.875-1.59 2.564-3.711 2.3-7.011 1.387-10.416 1.844-3.813 2.545 2.864 4.518 4.858 2.652 1.105.147 1.549 2.863 3.185 1.836 1.411-1.582 5.786 2.265 7.588-.51.317-1.21-.474-1.958 1.231-1.059.7-.2.07-3.458 2.207-1.507-2.555 2.914 2.116 5.662 1.944 2.478.654-1.083 2.793.477 4.143-1.155 1.722-.322 2.777 2.354 4.505.357 6.347-2.879 3.281.766-1.233 1.5-11.695-.139-19.377 7-2.394 6.263 10.167-2.127 18.39-7.843 28.16-5.024 10.357.529 10.849-18.76.973-10.156-.982-2.408-7.773 1.759-4.146-1.236.789-.97 0-.349-.44-.97-5.48.456-1.482-7.759-5.3-8.741-3.362-.641-7.106 3.473-7.856 6.188-.175 1.228.8.349 1.327.432 1.7.37 1.268 1.478 3 1.942-1.764 2.989-6.885 1.643.973 3.8 3.775 3.427-8.905.689-9.977 1.754.019-5.164-21.386-13.3-23.648-8.637" data-name="Path 1567"/><path d="M261.901 89.482c-1.832 1.6-11.006 5.874-4.762 6.973 3.55.737 10.676-7.417 4.762-6.973" data-name="Path 1568"/><path d="M237.361 89.665c-.842 4.866.638 2.4 3.979 1.667 6.644 2.408 2.679-.209 5.547-1.319 1.108-.348.907 4.418 3.274 3.261 2-.7 4.37-1.128 2.912-3.26-.2-1.364 3.856 1.757 3.708-1.856 1.8-.879 1.346-3.139 3.182-5.027 2.942-.144 1.893 11.275 7.5 2.29 7.156.091 2.687-3.177 4.842-3.976.965-.876-2.694-2.268-.525-3.083 8.564-1.915-3.008-6.2-5.467-3.363-2.448 3.737-9.019-1.711-12.538 3.2-1.595 4.088-21.074 9.3-16.415 11.468" data-name="Path 1569"/><path d="M245.837 91.414c-.083.8.18-1.053 0 0" data-name="Path 1570"/><path d="M282.556 81.357c-4.952-.506-5.457 2.671-.086 2.652 3.7.175 3.867-2.925.086-2.652" data-name="Path 1571"/><path d="M277.61 71.735c2 .191 5.617 1.33 6.973-.879-1.059-2.773-9.826-3.668-6.973.879" data-name="Path 1572"/><path d="M301.884 69.982c10.709-1.883-10.213-2.55-12.621-.8-7.693 2.443-1.332 8.326 3.885 7.331 18.867-2.368 4.394-4.666 8.736-6.528" data-name="Path 1573"/><path d="M286.97 66.088c4.3-1.062 30.121 2.748 15.527-5.738-.962-1.25-22.417 5.8-15.527 5.738" data-name="Path 1574"/><path d="M325.274 76.096c1.269 2.325 7.921 5.051 8 2-1.679-3.762-11.575-11.108-8-2" data-name="Path 1575"/><path d="M336.337 98.106c-3.056-1.569-5.552-1.375-5.888 1.88.622 3.647 8.794 1.93 5.888-1.88" data-name="Path 1576"/><path d="M356.105 48.088c2.912.113 7.929 2.756 6-2.47-2.175-3.225-11.234-1.188-6 2.47" data-name="Path 1577"/><path d="M475.393 123.328c10.379 3.673.759-6.768-3.239-7.075-5.368-.344-10.8-1.459-16.026-1.284 4.558 15.1 9.663 7.008 19.265 8.358" data-name="Path 1578"/><path d="M555.934 315.463c-.7-4.153-10.3-6.679-14.237-5.057 3.325 2.073 10.286 7.445 14.237 5.057" data-name="Path 1579"/><path d="M588.531 298.632c.828.354-.589-1.529 0 0" data-name="Path 1580"/><path d="M585.349 298.863c-6.223 5.167-13.862 18.31-13.419 22.37-9.315 6.607 11.125 5.169 15.063 3.057.577 3.174 3.1 3.363-.7 5.644 4.118 2.931 5.821-5.277 9.771-3.056-.051 1.437-.4 4.627 2.459 2.59 1.971 7.4 8.35-6.741 2.595-3.414.568-.718 1.993-4.9-1.056-2.826-.831 1.246-1.856 3.3-3.059 1.3-.75-1.211 4.572-3.917 4.939-5.295-.9-.719-3.566 2.631-4.818.941 0 0-.824.474.23-.47.6-.646-1.893-2.915 1.171-3.416 2.815-3.371-3.741-1.477-4.225-4.233-2.244.588-3.808 6.915-4.941 1.292-5.316.348-2.068-1.346-1.064-3.888-2.482-.915-5.67.911-6.713 2.946-.247-4.945 12.617-15.591 3.767-13.537" data-name="Path 1581"/><path d="M454.493 208.899c8.146-.405 2.558-6.3-2.3-5.472-1.59-5.63-6.505-4.154-8.819-7.6-3.52-3.392-3.378 1.387-5.3-1.588-1.689-4.724-3.036 1.284-4.233-2.638 1.1-4.979-7.114-3.824-6.18.18.88 2.456 1.592 2.639.346 5.3-3.813 3.81 3.1 6.571-3.343 7.933-4.281 1.061-.829 2.955 2.112 2.124 5.269-2.308 3.671-.118 4.41 2.82 14.041 3.4 1.528-13.278 23.313-1.059" data-name="Path 1582"/><path d="M231.546 320.81c8.874-.765-19.441-20.423-24.542-16.063a2.122 2.122 0 0 1 2.116 3.008c1.5 2.74 6.325 1.439 7.768 3.7-1.2 4.249 3.877 1.091 4.939 4.939.665 1.336 4.373-.4 3.531 1.946 1.852 1.652 3.54-.5 6.188 2.469" data-name="Path 1583"/><path d="M192.996 293.922c-9.36-6.357-.112-13.733-5.4-13.057-13.645-5.641 6.473 19.65 5.4 13.057" data-name="Path 1584"/><path d="M185.113 275.803c8.984 4.335-4.472-14.36-4.941-11.3 4.494 6.88-4.887 3.438 4.941 11.3" data-name="Path 1585"/><path d="M169.929 254.031c-1.842-2.8-1.372-1.678-.352-3.3-7.346-2.437-2.694 4.748-1.292 8.121.134-.568.958-3.9 1.644-4.824" data-name="Path 1586"/><path d="M176.526 253.21c-.064-3.9-5.515 0-3.3 1.413 3.349-.474.263 2.067.832 2.946 2.378 3.426 5.279-2.963 2.467-4.359" data-name="Path 1587"/><path d="M174.059 262.033c.836-3.719-4.178-8.406-4.019-3.178.451 3.2 4.5 10.975 4.019 3.178" data-name="Path 1588"/><path d="M181.819 262.974c-.319-1.263 1.521-1.231.118-2.472-4.241-4.076-4.394 4.335-.118 2.472" data-name="Path 1589"/><path d="M176.282 259.684c-2.194 1.51 1.091 6.456.584 8.47.765-2.014 2.249-7.189-.584-8.47" data-name="Path 1590"/><path d="M198.181 285.155c-5.127-5.713-1.356 1.853 1.056 2.649 1.244-.167.58-2.194-1.056-2.649" data-name="Path 1591"/><path d="M484.496 491.045c1.467.316 1.813-2.03 3.532-.362 5.617-.163-.493-6.247-3.762-4.812-.711-2.6-1.206-2.348-4.48-3.062-9.231-6.086-38.658-19.855-42.135-3.416 1.072-.807 13.859-8.153 12.72-2.474 2.99 3.029 9.086-.268 12 3.993 1.987 2.568 2.553-1.372 4.823.718.813 4.871 11.519 4.582 5.652 8.826 1.663 2.03 9.43-2.177 11.645.589" data-name="Path 1592"/><path d="M445.076 478.926c-3.07 1.193 1.711 4.443 2.118 2.354 0-1.179-.931-2.719-2.118-2.354" data-name="Path 1593"/><path d="M476.259 498.221c-5.19-1.973-9.781 1.438-3.177 4 3.163-.976 11.594-.941 3.177-4" data-name="Path 1594"/><path d="M507.451 498.575c33.231.375-11.92-13.87-11.3-6.944 2.954.751 1.421 4.473 4.711 5.642-1.049 2.946-13.371-4.336-10.121 2 2.647 2.089 8.941-1.485 12.475 1.177 3.812 2.96 1.593.051 4.239-1.879" data-name="Path 1595"/><path d="M534.152 498.099c-2.657-.327-10.275-.63-5.411 3.3 1.635-.072 10.459-1.209 5.411-3.3" data-name="Path 1596"/><path d="M471.075 461.271c-1.364-2.391-1.976 3.255-1.292 3.651 3.844 3.936 2.647-1.943 1.292-3.651" data-name="Path 1597"/><path d="M472.376 468.917c2.711-2.888.195-1.59-.82-1.3.113.834.335 1.84.82 1.3" data-name="Path 1598"/><path d="M475.673 452.559c-3.408-1.48-.742.7-1.29 2.706-.432 4.2 2.04-1.277 1.29-2.706" data-name="Path 1599"/><path d="M469.908 451.854c-1.389-.616-3.21.609-3.067 1.884.2.558 6.73-1.781 3.067-1.884" data-name="Path 1600"/><path d="M490.496 474.681c.018.435 1.837.962.352 2.47-.915 3.569 4.375-3.346-.352-2.47" data-name="Path 1601"/><path d="M22.179 274.212c-1.99-.7-9.481 3.155-6 4.591 2.619-.046 12.647-2.791 6-4.591" data-name="Path 1602"/><path d="M80.26 249.146c-2.494 2.076-4.5 1.649-6.54 3.534-1.153.321 4.5 7.028-.167 3.178-9.719-4.162-1.743 10.688 4.941 2.285 1.415-2.662 4.269-1.282 1.413-6.708.455-.75 4.778-2.753.354-2.29" data-name="Path 1603"/><path d="M181.157 160.914c-.671.314-.033.061 0 0" data-name="Path 1604"/><path d="M207.721 145.149a.263.263 0 0 1-.011-.1c-.195-1.561-.561-.207.011.1" data-name="Path 1605"/><path d="M452.837 160.122s.018-.094.03-.177a.888.888 0 0 1-.03.177" data-name="Path 1606"/><path d="M454.9 555.483c1.531 4.628 6.735 1.643 3.708-2.356 2.3-.84 2.765-3.561 4.657-4.312.383 3.682 3.952-1.931 5.1 1.67 4.209 2.9-.955 1.1.426 4.459 6.017 7.553 10.519-7.567-3.941-9.767-4.528 1.166-13.6 7.9-18.725.231-13.365-18.337 10.4-40.553-28.713-33.3-6.735 4.094 2.453-6.118.352-9.293-2.327-2.95.416-1.043.812-3.094-.883-1.183-1.565-4.974.249-3.859 1.218 7.516 2.118-4.4 2.124-6.823 1.094-3.155 7.735-5.65 2.467-8.237-3.236.206-6.331 1.091-9.653.352-13.4 2.467-5.328 7.917-12.349 14.586-13.293 4.922-22.911 4.346-30.132-9.87-5.456-6.272-2.793-14.977-3.406-22.956 7.8-6.331-5.917-17.919 8.47-20.973 8.111-4.234 10.5-9.464 19.883-5.644 4.867-2.676 6.4 4.076 9.885 1.877 2.2-.579-1.416.662.829.824 3 .121 1.746-2.987 3.534-.946 4.569 4.016.49-6.7-3.422-5.408 9.089-.7 14.226-1.542 23.3-.472 1.25 5.564 7.268 2 9.773 2 7.628 4.552 6.886 15.2 10 21.664 1.3 2.686 3.046 1.019 4.008 2.351-.1 2.6 1.4 3.11 3.056 3.879 6.328-7.693.478-19.032-3.177-26.821-3.965-10.092 8.542-22.093 16.723-23.539 1.778-.81 4.813-6.371 7.285-4.949 3.977-1.384-4.925-4.244 2-4.116 3.832-2.1 2.828-3.121.706-4.237.864-3.3 2.308-5.362-1.887-6.706-3.553-2.47 3.3.794-1.054-4.709-.123-2.242-1.531-2.708-.36-3.057 1.957 4.2 2.823-6.714 3.536-5.414.187 3.678-.308 16.471 4.827 6.478-1.906-10.851 1.1-.633 5.646-8.834 2.032-3.41-3.107-6.786 1.289-8.234-1.1 3.132.333 1.931 2.354.466 26.947-5.788 4.154-5.936 18.605-18.7 4.619 1.139 3.681-2.759 6.934-3.068 3.7-.337 10.148-2.41 8.358-5.028 1.482 1 4.3-.828 4.241-1.528 2.155 3.545 7.88-3.907 8-.593-.861 2.928 4.151-1.325 4.352 1.528-1.344 2.832-.309-.485-3.411.947-2.829 1.3-2.231.7-2.944.818-2.818-.19-9.031 6.366-6.228 8.6 9.11-.683 17.82-9.728 27.775-11.065-2.716-1.054-.351-4.237-4.244-3.064-2.67 2.373-14.851-.317-15.3-4.823-6.145-6.185 1.179-4.33-1.646-8.585-3.263.738-3.046.817-5.065-1.3 22.624-2.821-2.641-16.739-20.589 2-14.353 12.588 4.939-9.768 10.481-9.421 12.61-16.168 36.406 1.911 48.823-14.475 4.135-1.131 10.125-1.069 13.305-4.354 1.5-1.882-.713-2.963-1.29-4.823 4.891-4.4-2.008-12.18-6.6-8.129-.287 2.086-.911 2.352-.7-1.177-1.764-7.668-15.117 8.8-15.063 1.411 5.644-1.1 10.172-4.06 15.891-5.641-2.7.226-2.187-3.046-3.3-3.411-8.3 3.137-2.3-5.006-9.65.124.954-1.9-.327-2.531-2.346-2.706-1.507-5.044-4.295-4.526-8.593-9.3-.982-2.628 5.411.153 1.4-5.416-3.521-2.708 1.006-4.926-5.172-6.945-5.623-6.217-10.39-25.177-14.588-10.114 1.44 2.392-.478.553-.943 1.883 0 1.29-1.068 1.647-.825 2.118 3.244-.917-2.03 4.272-1.172 4.352-3.183-4.77-4.748 1.7-8.011 2-1.856-.164.065-3.684-3.657.346-3.242.587 1.311-3.686-1.043-5.524-1.6-2.836-8.789 5.158-7.66-.938 5.194 2.191 1.96-3.15.71-4.936.743-3.236-1.159-4.835-.115-7.309 5.068-5.808-3.875-3.016-5.649-3.769-5.287-.193-3.772-6.555-8.719-6.242-1.533-8.06-10.516-1.568-14.7-3.861-2.726.714-1.831 1.183-3.178-1.188-.024-1.858-4.346.831-4.587-.242-1.293-2.494-4.641-.049-6.363.831-1.091 9.3 8.154 20.5-2 28.239-3.555 3.387 9.671 4.143 9.66 10.708 2.933 12.355-7.231 16.474-15.779 19.658 4.784 4.6 1.3 12.248 5.537 16.007 2.038 3.408-4.186 3.985-.47 7.3-1.238 2.43-1.281 1.533-2.947.587-2.244-1.82-3.623 1.812-1.641 3.287-1.057-1.8-5.13-3.285-7.419-.7 4.335-3.547 1.051-6.1-2.356-8-3.812 1.092-.856-.383-.357-1.488-.3-.368-3.867-2.7-4.588-4.51.077-4.768 2.467-18.824-5.526-15.774-3.4.592-4.891-2.639-8.594-.826-2.448 1.7-2.11-3.584-3.77-2.462-2.845-.386-6.228-3.308-9.062-2.713-3.2-6.443-11.4-5.367-16.114-9.535-1.029-1.909-13.567 4.989-10.827.48 2.56-1.281-2.647-8.2-2.942-10.237-6.475-4.2-4.43 2.553-8.473-4.249-1.381-7.653 5-17.32 8.244-23.3 3.879-.788 2.486-1.974 2.816-3.879 2.941-.193 3.284-1.36 2.823-2.71 7.083 1.978 9.934-3.555 3.062-6-2.534.978-.764-1.078-2.462-1.172-1.912 1.383-4.252-1.6-5.177-2.126 4.569.464 16.291 8.355 15.527-.466 5.655 4.4 18.816-5.569 14.127-10.009-3.992-.105 6.52-3.805 7.291-7.649-2.815-2.628-4.617-4.013.472-3.182 3.289-1.064 2.713 4.217 6.231 2.595.869-2.387 4.426 1 5.185-.829-.447-3.052-6.339-5.325-5.764-5.29 3.587-1.236 6.37 5.33 9.639 6.236-3.06-3.625 2.572-2.367 4.587-5.526 9.515-6.328-.276-7.677-2.464-13.776.2-2.236 3.737 1.04 3.65-1.413 9.5-3.231-5.1-2.132 2.112-4.816-.284-3.73-5.51-1.1-6-4.119-1.97.426-2.54-.112-.711-.823-1.872-2.014-9.982-2.328-14-1.77-1.348-2.269-1.333 1.059-.475 2.824-.928 2.9 1.595.191 2.356 2.349-.344 2.753 3.446 1.5 2.118 2.6-2.332 2.4-3.67.8-5.064 1.871-.36 7.553-6.223 10.556-9.413 15.191-11.164-18.6 3.04-4.406-4.357-17.891-5.762-2.732-9.818-.635-11.647 5.772-1.472-3.293 2.7-5.947-1.88-6.835.03-2.351 2.4-.249 2.469-1.29-.059-2.263-1.5-1.987-2.467-2.716-4.386-4.69-6.859 2.923-9.3-2.23.59-.472-2.829 1.882.59-.472 5.569-3.923 7.376-1.557 3.41-5.411-6.255-1.757-4.945-9.3-10.007-12.593-6.9-1.316-4.7-1.4-.354-3.413 4.773-5.622-3.614-6.028 7.417-6.237 4.558 1.536 4.792-2.877 5.421-5.056 18.133-9.135-23.877-13.566-20.241-4.727-5-3.188-2.647 11.334-.587 13.54.255 9.781-3.893 3.25-1.292 9.062-5.319-1.654-8.494 7.055-2.942 8.119-6.328 6.521 5.167 9.183 9.763 10.239 1.273.968-.735 1.328-.354 2.467 1.962 2.084-.883 2.375-1.29 3.887 3.765 1.753 5.064-5.918 4.588.463.372 6.805-14.742 4.325-9.422 10.6 1.169 1.22.662 6.151-.118 4.714-.037-4.617-2.727-1.649-4.233-4.124.97-4.118 4.775-7.347-2.587-6.595-6.142-6.429-3.808-.027-8.717-1.4-3.319.456-.573.426-.234 1.641-.144.156-1.384 7.02-3.174 3.643-.8-2.131-10.542.963-13.294.947-7.024-2.5-12.773-3.046-19.182-6.6 1.478-9.073-22.841-1.571-16.948 2.829 1.593.9 19.238-6.775 12.95-2.116-12.752 4.936-10.854 2.271-5.539 13.065-3.617-2.595-2.5.7-1.411 2.936-9.759-5.406 2.716-5.1-4.936-8-2.512 1.464-3.474-1.427-3.185-2.706-9.875-5.3-18.706 4.716-27.531-.588-1.15-1.277-2.73.139-4.006-.706-.354-5.671 14.423-1.12-2.357-9.65-5.507.316-11.87 1.745-16.238-2.244-7.926-.534-18.068-9.24-25.062-4.108-.6 2.421-5.462 3.633-4.834.943l.482-1.064c-2.962.679.069-4.36-1.536-4.7-1.757.164-5.784 1.609-3.174 2.115-2.877 11.385-8.752-.783-13.416-5.77-4.424-2.274-2.708 1.159-1.767 3.539-2.391.072-3.826 5.445-6 3.287-4.827-1.147-7.312 3.855-10.237 4.593-3.333-3.4-8.258 2.807-9.77 4.709-9.837 2.561 8.856-8.709 13.3-8.357 15.462-10.671-15.787 2.265-18.71 3.646 2.515-2.349-3.04-4.183-3.41-1.41-2.757.927-11.628 2.4-4.832 5.3 1.518 2.488-2.1-.453-4.118-.587-3.4.073-6.937 1.18-9.76-1.812-4.981-4.15-7.579-4.694-14.592-3.643-2.714-1.14-8.452-5.2-10.725-4.679-16.245 0-33.662-3.658-48.83-4.7-.433-5.725-7.526-2.843-10.946-2.479-1.989-2.9-4.461-2.883-5.764-.343-5.316.52 4.748-3.537-6.582-4.48-3.41 2.622-5.595 5.564-10.476 4.7-7.62-.71-8.8 7.129-16.3 4.714-6.856 3.309-7.736 15.974-17.125 13.253-10.326.761-7.224 8.7 1.592 9.341 6.633 3.813 4.387 10.173 14.768 7.76 3.276-.142-1.019 5.376 5.354 3.66 8.473.024.553.845-.534 3.464-23.6 5.309-7.111-6.59-19.06-2.469-1.239-.277-4.936.614-4.888 2.177 1.842 2.273-1.617.561-2.706 1.12-2.462.6-4.445 2.327-6.942 2.529-7.99 5.02 13.42 3.422 4.834 5.708-2.864 8.789 14.695 3.5 19.358 6.122 2.277.785 9.3-6.457 10.826-2.352-3.791 5.221 6.563 10.478-7.422 10.649-4.658 6.551-9.542-1.86-13.113 4.888 1.625 4.212-4.658 2.391-5.708 9.055-2.467 1.627 1.4 8 5.821 1.234-7.036 8.06 6.212 3.161 6.593 7.059-1.427 2.126-2.265-1.726-3.473.364-3.177-.9-3.375-3.108-6.177 1.054 4.108-.072 4.724 4.706 7.409 5.647 5.215.828 7.7-1.622 8.186-5.237 4.06-4.06-.692 2.056 1.587 4.123 1.411 3.142 2.34 2.461.11 5.357 2.9 9.248 4.226.037 11.25 2.939 6.472 2.332 4.156 6.365 7.767-2.649 2.893 1.754.746 1.475-.18 3.115.537 3.062 4.092.541 6.051-.241 5.7-5.678 3.265.585-.464 2.244-1.281.679-.024 1.59.234 2.178-.4 1.289-1.234 1.517-1.177 3.062.5 5.143-14.234 8.9-15.3 13.527-8.77.464-7.653 3.623-14.068 6.3 2.312 5.529 3.2-1.233 4.242 1.88 2.907-1.525 3.676-5.756 6.239-3.059 1.925-1.6 2.895 1.287 4.123-.175 2.442-4.556 3.477.172 7.995-4 5.4-.027 2.116-5.33 8.121-5.837 5.481-2.678 7.121-7.551 13.36-9.349 3.708-.4 3.464-4.091 6.65-4.7 3.815-5.293-5.4-2.257-2.533-6.071 8.59-4.273 11.692-15.605 22.3-15.873 5.218-2.922-2.327 1.778 1.293 2.4 3.116 1.855-1.287.408-2.167.588-4.357.7-2.617-1.866-6.654 1.6.043 3.521-6.982 8.915-.246 8.406 1 3.1-5.357 1.372-3.266 3.828 3.993.19 6.26-1.118 9.039-3.3 18.68-5.612 2.952-6.7 12.352-11.881-2.668 6.341 6.717-2.29 8.888 4.126-5.459 1.625 5.66 2.727 7.77.174-.927 1.067-3.123 2.006-.765 2.82 4.524 3.874 14.1-.179 18.005 2.123 1.325 4.261 6.43 1.872 9.3.77 3.107 2.505-6.746 1.306 2.993 5.108 5.773 1.895 10.237 10.763 14.892 4.949-1.209-2.107.633-2.2 1-.3.169 3.006 5.8 3.027 3.584-1.057.254-3.14 1.574 2.236 1.946 2.769 1.159 2.341 7.408 1.588 6.244 4.941.778.365 1.952.022 1.053 1.528.1 1.348 2.636 1.443.89 2.824 1.539 1.585 9.556 7.773 7.709 8.472-2.949 3.923 7.928-1.628 4.174 5.065 3.965 1.238-.663 2.7 1.467 4.7 2.426-.384-.691 3.2 1.652 3.775 1.547-.925 5.116-.8 2.36 1.336-1.525-.367-1.218 1.218-1.195 1.952 2.485-.434 2.6 1.33 4.054 2.359 4.891-5.162 1.85 1.116 4.724 3.057 4.518 9.362 6.315 2.06 7.937 5.88-2.435-.238-5.172 2.453-3.749 4.258 3.754-1.577-2.1 2.4 1.277 3.807 1.84 2.193 7.285-1.352 5.945 2.77 1.869 1.852 8.537-.962 7.067 1.464-.92 2.223 2.714.386 1.523 2.882.217 2.3 3.786-.014 4.008 1.888.177 2.568 4.221 1.266 4.406 3.879-3.553 1.249 8.62 4.658-1.34 6.344-4.327.933-6.858-5.3-6.65 2.772 9.735 10.967-3.022 28.933 2.652 41.419.212 2.772-3.218 6.44.821 8.416.888 4.279 3.367 13.245 8.3 12.01 1.986-.611 6.459-.207 1.82.346-6.217 4.8 6.805 13.64 7 19.119 16.017 5.512 18.482 10.389 25.53 26.911.067 5.025 13.13 8.448 8.653 13.063-1.056-.18-7.2-.177-3.231 1.413 2.545 5.987 14.377 4.338 13.77 11.939-2.163 5.483 6.952 7.328 9.419 10.995 1.832 1.474 2.217 5.169 4.984 1.95-2.765-10.03-5.118-1.432-8.108-12.766 1.089-1.458-3.135-1.6-1.587-2.356 3.517-.6-1.541-2.708.169-2.651-3.4-5.743-11.674-11.223-10.473-17.356-2.861-2.4-8-1.936-7.595-7.639.874-.86-3.252-7-.579-5.244 4.5 1.726 4.666-.767 7.057 2.352 3.212 3.823 4.51 11.366 8.711 15.591 4.328 3.917 7.5 7.58 12.35 11.243 1.226 1.183-1.689 3.019 0 4.228 8.606 6.756 25.113 17.594 19.9 29.958 4.759 11.64 19.146 12.328 28.528 19.289 14.455 4.528 16.245 6.882 31.01 3.775 14.352 15.585 41.258 10.485 45.06 32.885 2.059-.164 4.132 3.636 4.121.236-1.681-3.352.994 1.694 1.832 1.526 1.013 1.137 3.343.512 3.995 2.47.161 5.749 6.182 2.054 14.006 7.484m-54.7-225.656c6.016-3.965 12.009-7.231 15.852-10.178 2.445-4.7 3.328-.5 6.845-1.349 4.18-.386 4.45 3.6 7.114 5.853-.765 5.3 5.263-5.575 5.134 4.414 4.083 1.439-.817 2.681 1.711 4.052 3.446 3.727 3.3 3.147 9.1 2.88 11.631-1.509 23.3 17.9 5.764 6.577-.565 2.4 5.276 4.435.63 6.484-2.9.761.759 5.051-2.252 6.484-3.282 1.576-1.647 5.011-5.132 5.583-2.142 5.99 8.81-3.88 11.347-1.981 1.837 2.143 2.528-.226 3.6-1.172 1.429.824 3.816.016 5.225-.539 1.521-1.778-5.853-.869-3.692-2.523 5.024-1.134 1.71-5.247 7.114-3.151a27.776 27.776 0 0 0 16.572-6.846c-4.116 4.1-5.8 13.7-15.94 10.357-4.861-1.33-1.234 3.45-4.595 4.775-6.21 3.987-15.146 9.46-22.876 5.044-.289-1.919 5.086-6.437 5.314-8.736-.088-2.41-1.488-8.775-4.234-4.593-4.242 3.749-4.346-.933-.27-1.529 2.934-11.322-8.183-14.14-11.436-5.043-3.25-3.753-4.491 5.67-5.046 7.652 7.106 18.168-16.525 16.974-2.609-10.357.917-5.84-5.655 10.092-3.786 2.341 4.879-9.843 1.987-2.733 9.909-7.293 10.454-.592 13.655.116 1.531-4.328-5.9 2.745-8.52.078-13.961-1.89-5.4.592 5.223-2.574 2.7-3.421-5.469-1.517-8.012 6.049-13.42 5.762-3.781.807-1.949-2.927-4.864-1.979-3.186 3.888-6.721.619-1.351-1.351M261.734 189.484c7.425 4.352-6.6-1.855-8.068 1.895 4.212 4.432.054.989-4.5 6.1-11.861 2.593 6.789-3.354 1.265-5.8-4.91-1.348-5.459 6.955-9.333 4.909-9.156.75-3.392-1.8.26-5.394 1.836-2.009-1.936-1.426-2.454-2.416.968-.078 3.236-.853 3.977-.223 6.044 2.644 3.107-2.381-1.561-2.415-3.828.537-7.537 1.357-11.189 1.314-3.019 3.77-4.815-1.531-2.517-1.679 10.275 1.226 21.029-9.143 30.553-4.363-8.673.421-1.828 3.475-7.555 3.022 5.628 4.756 21.626-6.315 11.121 5.052m48.332 26.684c-2.2.93-4.88-1.145-6.679 0 8.561 4.067-6.773.225-6.03 4.847-2.5 1.1-4.783 6.531-7.647 5.387-3.513-1.883-1.966 2.829-4.524 3.553-6.1.8-13.974 1.879-19.066-1.724-1.212-2.826-.78-1.807 1.185 0 2.214 1.461 2.824-1.726 4.631-.863 5.123 1.4.986-4.36 8.725-3.875 1.212-1.783-10.481-10.354-3.446-6.788 16.954 13.816 21.949-8.4 32.851-.539m56.089 80.418c-.885-2.274-5.437-4.611-3.241-7.295-5.633 1.713-3.057-6.486 1.349-5.225 3.344-7.543-.19-2.027 4.052-2.611 1.931 1.249-6.3 2.631-1.71 4.322 3.69 3.174 3.025 8.76 6.574 13.06 6.523 6.183-5.127 14.64-.992 2.252-.094-2.58-.273-2.1-1.8-.81-1.62-.571.383-5.349-4.233-3.694" data-name="Path 1607"/><path d="M479.473 459.702c-3.821-.588.466 1.531.7 3.158 1.882.8.277-3.161-.7-3.158" data-name="Path 1608"/><path d="M484.507 464.879c-2.539-2.77-.257 1.989-.56 2.595.644-.148 1.075-2.188.56-2.595" data-name="Path 1609"/><path d="M480.662 470.052c1.793 1.26 1.059-.941.073-.561-.073.561-.638.214-.073.561" data-name="Path 1610"/><path d="M484.649 471.239c.64-.038 1.482 2.338 1.952 1.895 2.11-1.939-3.228-4.925-1.952-1.895" data-name="Path 1611"/><path d="M493.455 482.991c-2.021 1.9 2.97 2.7 3.365.78.628-.5-2.446-1.124-3.365-.78" data-name="Path 1612"/><path d="M498.43 477.186c1.883-.931-2.81-1.453-1.477.075a4.257 4.257 0 0 0 1.477-.075" data-name="Path 1613"/><path d="M63.8 477.542c-2.171 0-2.137 1.064-1.592 2.831-2.826 8.059 11.695.056 1.592-2.831" data-name="Path 1614"/><path d="M61.324 473.83c-.713-1.765-1.944-.52-2.832-.171-1.153.912 3.971 4.143 2.832.171" data-name="Path 1615"/><path d="M55.145 472.425c-.711-.177.722 1.678 1.043 2.118 1.579-.123 2.019-3.679-1.043-2.118" data-name="Path 1616"/><path d="M51.608 469.426c-1.411-1.236-1.057.349-1.579 1.233-.622 1.947 4.773 1.328 1.579-1.233" data-name="Path 1617"/><path d="M42.613 466.961c-1.072.874.7 1.577 1.405 1.938 1.053.069.311-4.8-1.405-1.938" data-name="Path 1618"/><path d="M39.61 467.136c-.882-.175-.609 2.78-.177 2.462.71-.536 1.062-2.3.177-2.462" data-name="Path 1619"/><path d="M8.052 233.222c-12.516 4.169 3.032 6.826 3.871 3.3-.683-2.4-1.7-4.553-3.871-3.3" data-name="Path 1620"/><path d="M543.45 329.964c-4.778 1.167 3.947 7.336.96 2.252-.732-.743-.169-1.922-.96-2.252" data-name="Path 1621"/><path d="M552.056 333.172c-8.312-.909-7.366 2.608-.848 3.052.93-.47 3.73-3.805.848-3.052" data-name="Path 1622"/><path d="M563.452 332.859c.07-5.569-5.419.435-6.156 2.778 1.547 2.649 5.094-.013 6.156-2.778" data-name="Path 1623"/><path d="M563.338 338.422c2.748-.622 3.687-5.288-.321-3.322-1.809.789-2.472 5.153.321 3.322" data-name="Path 1624"/><path d="M479.379 166.886c-2.775.622-4.639 2.437-4.5 5.737 3.445 11.715 19.906-7.427 4.5-5.737" data-name="Path 1625"/><path d="M466.318 161.426c1.628-1.088 4.105-3.153 3.084-3.984-3.17-2.115-9.169 7.15-3.084 3.984" data-name="Path 1626"/><path d="M468.961 155.95c1.7-.646 3.65-2.352.439-2.922-2.127-.585-3.658 4.716-.439 2.922" data-name="Path 1627"/><path d="M477.707 157.797c-1.131-2.5-5.367-1.206-3.719 1.054 1.094.5 4.45.73 3.719-1.054" data-name="Path 1628"/><path d="M485.827 165.296c.518-.357.518-1.494.437-1.855-1.364-.746-1.678 2.238-.437 1.855" data-name="Path 1629"/><path d="M490.15 171.831c1.467-.234 4.271.563 4.934-.177.7-3.54-11.5-4.028-4.934.177" data-name="Path 1630"/><path d="M460.219 155.765c6.288-2.269 1.2-3.654-2.115-2.394-2.107-.486 1.124 3.4 2.115 2.394" data-name="Path 1631"/><path d="M424.922 166.886c-1.842 1.057-2.335 4.544-.179 4.587 2.708.112 2.713-5.507.179-4.587" data-name="Path 1632"/><path d="M426.601 151.089c-.775-1.269-4.879-1.722-4.244-.442-.325.092 6.15 2.038 4.244.442" data-name="Path 1633"/><path d="M448.319 212.66c-3.917.9-6.677.868-8.3 4.226 1.108 6.558 15.25-3.663 8.3-4.226" data-name="Path 1634"/><path d="M460.18 223.139c1.612 4.186 4.121-4.6 3.5-5.44-2.955-1.7-6.534 2.746-3.5 5.44" data-name="Path 1635"/><path d="M469.28 210.552c1.761 0 3.083 1.675 3.571.483 2.362-4.489-7.169-2.483-3.571-.483" data-name="Path 1636"/><path d="M475.784 206.565c-5.1 1.343 3.585 4.628 2.11 1.461-.971-1.143-1.456-1.633-2.11-1.461" data-name="Path 1637"/><path d="M757.408 153.267c22.621-7.15-19.018-4.888-24.271-3.572 2.226.195 24.31-7.328 11.471-8.657-4.153-.1-9.92 3.3-9.526 5.563-2.2-.337-6.14-.59-1.982-2.032.56-5.689 27.82-3.9 8.248-8.606-6.2-2.381 8.882.136 9.623 3.107 6.379 2.9.018 5.588 9.99 7.258 1.834.03.274-1.3 1.053-2.268.925-1.043 1.234.195 1.134.834 1.691 4.687 7.671-2.376 2.191-3.783 1.738.225 4.467-1.9 2.571-3.627-1.183-2.15-4.523.552-4.148-1.362-2.676-6.207-11.773-8.076-14.527-13.762 3.979-4.657-8.765-1.065-8.4-4.614 2.064.118 3.719 1.928 6.282.608.6-3.013 8.6 2.469 10.18.947-1.279-3.261-7.641-2.5-7.988-3.607 2.434-1.413 2.351 1.134 5.6-2.038 1.7-.652 8.588 1.649 5.819 1.807-12.151-2.925 1.053 8.169 13.376.568 1.715-5.507-3.518-2.926-6.631-4.88-4.359 1.69-2.852-2.5.609-1.555 1.552 3.351 17.187-2.627 14.752-4.684-1.6.089-8.513.145-4.349-2.112-.378-2.073-4.976-1.14-4.853-3.373-.273-4.11 3 .868 4.8-.086 10.51-12.752-7.307-9.494-12.489-15.358-3.429.62-2.558-3.861.054-1.954 2.06 3.936 5.8-1.9 9.353-1.035 3.124-1.126 6.834 2.113 10.333.627 4.1-6.808-4.574-4.961-7.7-6.74-8.06-2.068-4.178-5.1 1.986-1.686 7.322-1.45-6.383-4.481-8.4-4.367-1.982-.469-3.072 4.263-4.475 2.845.289-3.979 4.322-6.918 3.71-11.574 1.442-2.073 4.489-.842 6.231-2.6-1.5-2.379 8.558-3.737 2.054-4.853-3.32-8.189 7.84-.858 10.465-8.186-1.824-.683-13.18-3.3-13.05.107-3.075 6.248-4.475-.794.684-2.166 8.3 2.823 34.19-6.191 8.441-4.148 3.142-4.5 13.208.04 19.179-4.194-3.051-4.287 14.364-2.7 11.553-9.545-10.21-6.861-24.3-2.815-32.335 2.247-3.347-2.625-8.3 1.63-8.338.077 2.7-6.4-10.536 4.1-12.593 4.926-1.706-.11-8.523 6.457-7.044 4.583 1.6-5.22 11.809-7.7 10.232-14.969-4.733-6.547-11.687 2.564-16.36 3.419-3.609-.584-6.893 2.971-10.416 3-4.008-.928 8.221-2.647 9.7-5.365-7.327-6.65-24.208-.046-34.491.053-.721-.026-6.564 2.732-4.765.172 15.077-4.8 31.367-2.636 47.146-5.379 24.723-4.434 1.218-10.039-9.381-6.9 12.491-9.677-11.993-1.673-16.007-3.745 55.818-6.815-80.737-10.267-47.4-.99-1.271-.239-7.794 2.068-6.657 2.7 3.981 2.872-2.051 1.147-2.952-.689 2.424-2.454-.792-3.098-3.392-2.554 2.823 5.732-13.2-2.936-25.225.713-6.555-.754.963 2.378-3.057 2.193-1.242-2.43-8.763-1.692-5.084.678 2.21 1.957 7.974-.445 9.561 2.043-9.641-.171 1.14 3.4 4.271 5-2.437 1.89-11.591-5.625-15.969-3.907-8.693.946 1.151 4.834 4.783 5.666 1.143.242 9.078 5.438 6.11 5.67-5.41-2.478-45.275-18.3-26.562-1.671-.706 1.163-3.223-.325-4.5-.067-1.675 2.5-1.52.3-3.183-1.435-1.588-1.612-13.68-6.041-9.006-.311 1.494 2.69-2.242 4.512-3.493 6.424 1.616-6.226-1.928-14.726-10.2-8.913-1.887-.7-3.1 2.919-3.985.872-14.2 1.378-21.364 1.521-2.281 9.459 3.43 2.437-11.025-3.065-11.21-5.327-3.831-2.5-17.358-.043-10.1 4.614-4.561 3.946 2.086 5.312-3.6 5.432-2.365-2.035-11.325-3.44-8.006 1.847-3.867-4.969-9.61.325-13.514 2.95-17.991 4.949-1.515 10.615 7.323 6.22 3.022.59-6.306.868-3.461 6.295-1.965 7.295-14.736 5.3-20.326 7.845-3.459 4-10.341 3.022-14.985 4.48-.973 2.883-3.343.249-4.689 2.352-5.335 5.907 27.514 12.682 29.424 7.607 11.878 3.108-3.322 4.794-7.845 3.794-4.137 2.225-9.921.638-14.232 2.635.124 3.805 5.607 2.1 7.242 2.059-2.2 4.025 7.046 1.592 9.079 2.976.453 2.435-10.145.188-4.427 4.891 2.9 2.242 6.981 2.242 10.6 2.1.423-.258-1.957-3.105-.029-2.41 3.426.906.825 3.355 4.132-.408 1.935-.126 1.509.848 2.175 2.07a8.071 8.071 0 0 0 6.429-2.252c3.837.659 9.653-1.268 15.09.974 6.942 1.269 17.666 2.528 17.9 10.583 7.269 3.123 10.767 8.992 13.219 16.519 4.249 1.738.083 5.37 1.919 5.47 2.644.389 3.765.965 2.989 3.969-.083 1.458 4.166 1.772.691 2.4-1.265 1.812-1.144 2.6-3.027 4.024-2.164 2.41 2.505-.322 3.056-.831.293.8-.911 1.633-1.577 2.024-11.5 3.749 4.359 6.346 5.18 2.855.132-2.065 3.383-1.793 1.579-4.048-1.911-1.875-1.386-5.513-.352-.888 2.716 4.033 4.137-.714 3.212 4.19 2.467-.439 3.3.034 4.59 1.858.915.627 3.66-2.474 4.089-.077-2.576 2.584-3.732 2.895.317 4.072 5.461 5.654 1.432 8.725-4.644 4.28-8.618-5.309-18.65 1.756-3.081 2.7 4.571 7.335 20.288-3.15 10.578 9.615.962.118 1.491 1.161 1.663 2.051 2.081-1.844.818.6.86 1.706-2.4-.773-5.449-1.955-2.711 1.427-.507.8-2.93 1.713-.362 2.542-3.668 3.671 4.113 3.853 3.71 5.492-.622.6.348.944.754 1.223-.161 1.23-4.834.525-1.9 1.563-.81 2.354-11.72-4.469-15.082-.185-8.255 4.727 5.925 1.12 8.582 1.632 3.376 3.038 5.692-.078 6.483 1.885-5.84 1.147-3.657-.529-7.934-1.293-5.69-1.159-13.873 4.062-3.134 2.8 5.052 2.088-10.307 3.8-3.429 6.767 3.1.051 11.924-9.4 12.833-5.722-5.626.7-20.57 10.5-6.25 7.558-1.852 1.274-8.6 1.285-3.708 3.711 2.7 2.622 5.7-3.941 8.539-1.167-4.77-.325-6.027 1.852-6 6.749-.325 2.1 3.828-1.958 3.666.341-.88 1.446-3.842.852-3.531 3.54 1.63 5.124 3.153-4.52 6.017-2.663.7-.346-.211-5.188.933-2.521 1.443 2.738 4.4 1.289 4.512 4.831 1.679.766 1.172 2.222-.569 1.314-2.5-1.574-1.252 2.217-3.475 1.633-1.1-.384-1.048 1.195-1.592 1.512-.464.193-1.427.116-1.494.8-1.834 2.987 1.47.711 2.33 2.105-.249.625-.909 1.34.185 1.687-.163.183-1.372 1.356 0 1.212 1.073 0 2.55.244.6.75 3.344 2.754 3.864-1.062 3.708 3.866-3.719 3.113 2.108 2 2.15 5.287 2.048 1.206 1.813-1.764 3.655 1.195-2.237.671.7 3.092 1.791 3.757-1.067 4.129 2.108.447 2.512 1.352-.274.872 1.533 1.129.263 1.478-1.478.469.113 4.6 1.77 3.174 2.435-2.9 6.652 1.092 8.832-3.97.99-.92.316 1.5 1.671 1.5 1.7-2.486 2.371-.164 1.148 1.367-2.963 1.59.405 3.014 2.161 1.942-1.415 1.7 2.207 1.34 1.155 2.158-1.765 4.191 5.036-.986 4.724 3.049 1.608-2.081 5.711-1.592 1.1-4.19-.7-.812 2.673.011 3.091-.659.311-.863-.456-.866 1.054-1.593 2.006-.2-.2-2.853.665-3.893 3.2-.737-.3-2.234 1.1-3.072 5.842-6.837-3.34-7.24-.971-9.148 1.946-1.568 3.918 1.793 5.473-1.451-.439-1.837 5.746-4.075 2.3-4.719-1.582-1.51 2.064-2.151 2.427-.888 3.013-3.091.287-5.293-3.006-5.21 2.714-1.1 10.279-1.622 3.131-5.213-3.909-1.285.946-3.36 2.563-1.364 1.668-1.316 5.422-2.485 1.722-3.488 1.274-4.316 8.269 3.052 11.208-7.451 3.162-1.107-.1 3.11-1.191 4.185-.228 2.979 2.622 1.809 2.592-.751 1.633 1.875 2.387-1.547 4.421.753-.316-3 1.11-1.974 3.177-.794 1.033-3.8 4.493-2.172 7.6-3.746.85-3.638 5.225-4.953 6.4-10.192 3.745-4.448 10.3-1.856 5.331-8.519 1.781-1.416 5.373 4.759 8.256 3.088 1.045-1.23 1.268-1.3 2.646-.177.571-.069 3.987-1.2 1.279-1.317 8.672-1 24.518-4.4 33.8-13.329" data-name="Path 1638"/><path d="M605.01 151.247c-1.223-6.142-17.843-3.41-8.669.423-5.875 1.5-.383 3.754 2.655 3.485-5.406 6.158 22.149-1.155 6.014-3.907" data-name="Path 1639"/><path d="M611.727 165.377c.448-1.866-8.484-5.073-6.025-1.542 1.7 2-5 1.108-3.482 2.1 9.267 1.957-5.561 2.785-2.944 6.427 5.067-1.852 24.3-2.429 7.977-4.62.3-.978 5.563-.126 4.473-2.367" data-name="Path 1640"/><path d="M766.784 123.076a21.12 21.12 0 0 0-11.931-2.52c-2.663 2.609 13.219 6.953 11.931 2.52" data-name="Path 1641"/><path d="M764.413 127.12c-.579-2.068-12.468-6.052-10.459-1.944 2.1 3.1 3.127.786 5.714 3.343 5.878 4.18 4.1 1.625 4.745-1.4" data-name="Path 1642"/><path d="M588.915 123.474c-4.845 1.053 3.544 2.4 3.349.885-.257-.786-3-.974-3.349-.885" data-name="Path 1643"/><path d="M592.8 130.103c3.883-3.9-1.488-5-2.379-2.749 4.588.226-3.891 1.839-.533 2.832 3.237-1.761.88 1.324 2.912-.083" data-name="Path 1644"/><path d="M599.854 138.305c-.761.55-1.721 2.416.092 2.379 2.659.761 1.073-4.054-.092-2.379" data-name="Path 1645"/><path d="M604.189 136.972c-2.832.386-1.683 3.233.525 2.21 2.163-.491.225-2.245-.525-2.21" data-name="Path 1646"/><path d="M602.067 134.512c-.971-.8 0 0-1.056.171-1.38 1.405 2.97 2.048 1.056-.171" data-name="Path 1647"/><path d="M607.718 136.972c-4.154-1.706-1.756-.337-.528 1.764 1.445.223 1.729-1.4.528-1.764" data-name="Path 1648"/><path d="M610.187 142.366c3.67 1.046 1.105-1.588-.094-1.681-1.818.145-2.78 1.939.094 1.681" data-name="Path 1649"/><path d="M1626.302 666.843c.44-1.5-.437.885 0 0" data-name="Path 1650"/><path d="M1605.524 685.521c1.15.971-.53-.614 0 0" data-name="Path 1651"/><path d="M1689.099 751.858c-4.3-6.376-1.274-14.438-1.818-20.823-1.466 7.159-8.579-5.587-11.676-7.121-1.874-.325-.5-4.805-2.137-5.649-1.387 1.907-1.721-.766-2.638-1.14-1.86-1.424-1.534 1.947-2.209 1.59-1.837-2.384-.679-5.253-2.58-7.4-5.382-5.008 1.327-4.666-5.751-5.985 1.931-2.561-10.191-4.17-9.548-8.631-1.914-7.39-6.092-11.944-5.7-19.758-4.944-6.012-6.4.547-8.5-4.746-1.917-10.975-8.071-27.7-9.275-6.317-3.282 3.7-.63 10.409-1.643 14.119-.239 7.523-7.087 17.206-13.218 8.939-2.895-2.072-8.113-2.823-9.633-6.421-2.348 1.69-9.968-4.982-8.754-6.59 2.18-2.4 4.529-5.545 2.017-5.478-.281-3.274 2.9-.223 3.521-1.419.21-4.143 3.416-4.845-.55-7.674-1.166 5.158-3.094.585-3.355-.435-5.413 6.006-15.577-5.427-20.393-3.483-1.794 2.346 2.675 1.437 3.185 2.649 1.207 2.741-4.963 4.547-6 2.483-5.263 2.917-12.133 9.411-8.781 15.733-4.556-.233-5.381-1.965-8.65 1.783-.293-15.061-21.428-3.051-18.336 4.82-10.594-1.453-.23 1.064-5.114 5.3-.786 4.564-1.306-4.014-4.068-3.513-5.011 4.713-2.26 10.127-7.111 14.143-7.872 5.979-16.511 6.292-25.133 8.357-3.563 1.226-5.639 5.958-9.258 5.494-.944.845-2.639 5.674-4.142 3.812-.4-8.489-3.131 9.548-3.756 11.483 1.038 3.469 5.622 6.856 3.292 10.406-.048-1.045-2.639-3.81-3.367-3.357.721 1.214 3.78 4.1 2.131 4.858-1.311-1.33-3.349-2.231-4.07-4.493 1.673 3.75 11.191 17.723 10.561 26.8 5.593 7.216 4.028 14.258.234 20.211-.81 1.818 3 1.069 3.625 2.115 1.552 3.051 4.523 4.874 8.131 3.855 10.374-.206 17.245-10.161 28.592-6.765 4.832.9 6.984-4.332 10.3-6.215 8.685-3.9 18.09-5.271 27.249-7.312 14.274-1.576 8.545 3.671 19.425 3.485 3.981-.006 10.669 22.406 12.838 14.187 5.816-5.26 12.974-16.187 7.853-2.137.546 4.95-1.682 2.534-2.9 5.384.839.962 2.7-.856 4.328-1.064.286-4.248 4.491-2.9 3.532.611-2.536 6.2 4.882-3.507 7.527 14.27 3.48 5.678 10.062 4.341 15.036 6.577 3.474 3.191 5.864-.584 8.636-1.252 1.073-.651.987-2.024 2.115-2.381 1.622.683-.608 3.89 2.475 1.5 2.288 1.295-2.062 1.563.1 2.108 10.823 6.036 8.527-6.786 23.193-5.08 3.059-20.335 18.674-33.453 20.165-54.428" data-name="Path 1652"/><path d="M1641.41 673.603c1.065-.445-.526.083 0 0" data-name="Path 1653"/><path d="M1666.576 627.829c-14.7-1.236 8.132 9.125 11.3.2 1.333-.687 3.666 1.226 2.812-2.446 4.94-3.963-2.365-6.416-2.525-3.273-.27 5.218-7.272 5.059-11.585 5.516" data-name="Path 1654"/><path d="M1685.552 619.844c-.992-1.517-8.178-6.3-11.307-6.536.675 1.37 10.824 4.6 9.561 8.979-.7 5.156 4.365-1.66 1.746-2.443" data-name="Path 1655"/><path d="M1671.112 613.325c1.313.136 1.245-3.134-.469-2.127-.877.246-.488 2.2.469 2.127" data-name="Path 1656"/><path d="M1668.363 607.606c.156-.383.754-.155.147-.756-1.995-2.414-1.777 1.885-.147.756" data-name="Path 1657"/><path d="M1652.496 610.241c1.362.818 5.547.453 3.431-1.6-.238-.094-6.893.463-3.431 1.6" data-name="Path 1658"/><path d="M1701.227 632.934c-3.438-2.258-5.1-4.647-7.418-7.767-2.347 3.466 6.824 14.535 7.418 7.767" data-name="Path 1659"/><path d="M1706.351 636.665c3.9 3.5 1.678-1.07-.766-2.373-2.788-2.016-.27 1.879.766 2.373" data-name="Path 1660"/><path d="M1705.22 638.796c-1.828-.836-1.431 6.22-.536 2.365.075-1.36 1.386-1.7.536-2.365" data-name="Path 1661"/><path d="M1711.711 643.352c-1.743-1.072-2.738-4.993-5.652-2.957.183 1.086 8.917 6.359 5.652 2.957" data-name="Path 1662"/><path d="M1720.791 643.638c-.423-2.7-4.557-6.028-6.808-4.7 1.66 1.805 5.046 3.126 6.808 4.7" data-name="Path 1663"/><path d="M1729.043 646.9c-2.36-1.153-1.268-4.1-2.927-5.4-3.733 4.151 8.285 12.816 2.927 5.4" data-name="Path 1664"/><path d="M1726.07 650.565c-.319-2.035-2.566-2.883-4.515-3.037-5.155.155 4.939 6.39 4.515 3.037" data-name="Path 1665"/><path d="M1795.561 789.459c-12.561-6.874-2.454 2.963.709 7.526 4.41 1.076 3.2-7.215-.709-7.526" data-name="Path 1666"/><path d="M1796.977 799.104c.247 6.936 4.214-.609 2.821-1.663-.711-.458-2.821.718-2.821 1.663" data-name="Path 1667"/><path d="M1818.425 804.706c-7.054 4.909-9.44 2.364-14.133-5.4-2.955 5.376-3.82-3.523-4.69 10.384-7.469 11.443-2.861 3.563 2.153 11.754-4.717 14.907 12.57 2.676 10.569-6.154-.286-3.234 5.048 1.673 4-1.887-.065-2.73 8-6.507 2.105-8.7" data-name="Path 1668"/><path d="M1797.524 826.873c-4.952-1.837-4.231 1.491-6.59.027.084-1.99-3.108-4.448-4.006-3.3-4.67 17.266-25.271 20.669-30.513 34.2 20.884 13.969 19.375-12.438 34.789-14.685-6.059-2.5 8.865-11.875 6.32-16.249" data-name="Path 1669"/><path d="M1763.727 862.966c-3.911-.013-1.571 4.383.706 2.124 1.172-.95 0-2.124-.706-2.124" data-name="Path 1670"/><path d="M1660.895 825.812c-3.615-2.2-6.424 2.357-10 1.195-3.068-.011-8.544-5.725-9.057.135 3.815 4.319 5.074 20.613 12.859 13.621 2.882 1.831.379-4.644 3.177-2.006 2.421 4.223 3.655-10.625 3.024-12.945" data-name="Path 1671"/><path d="M1660.41 819.567c-3.778-2.99-.633 2.292.123 2.939 3.312-.678.419-2.1-.123-2.939" data-name="Path 1672"/><path d="M1605.976 793.936c-1.815-.817-6.532.226-6.351 1.78.928 1.155 8.816-.021 6.351-1.78" data-name="Path 1673"/><path d="M1639.346 819.383c.327-1.576-3.242-1.514-1.89.477.491 2.641 2.277 1.2 1.89-.477" data-name="Path 1674"/><path d="M1647.204 624.249c-13.264-10.393-27.4-12.274-40.854-19.061-4.7.142-11.556 12-16.148 9.445-6.014-7.861 1.327-11.267-8.913-14.232-3.934-3.111-9.741 4.7-11.183 1.644-6.4-1.872.177 4.679 3.531 3.88 2.6-.175.906 4.387 3.416 3.89 1.214-.086 11.695-.515 6.706 1.116-4.3-1.435-3.215 3.156-7.15.609-1.832 2.143.687 1.848 1.85 3.092 1.035 3.778 4.336 7.728 5.392 1.51 2.789-4.643.19-.049 1.139 1.32 5.658 2.351 10.173 4.756 16.6 6.352 3.394-.825 13.416 12.658 8.736 11.827-12.9 6.122 3.381 9.084 2.027 3.8 1.831 3 3.976.869 5.3.8.485 3.265 5.21 4.024 5.231 7.135 5.1 1.435 20.307-1.563 7.867-4.373-5.237-2.864 3.679 1.18 4.5.083 10.087-12.062 15.632 5.386 24.214 8.763 3.241.73 8.086.523 10.775 2.357 2.075 3.415 4.494-1.77 3.426-2.04-4.74 1.274-8.641-7.646-9.808-5.893-1.569.292-2.491-3.722-3.979-4.485-.692-1.759-9.3-6.341-4.785-7.655 10.5-1.663-7.995-6.008-7.883-9.88" data-name="Path 1675"/><path d="M1549.161 617.461c4.816-2.215-3.078-5.894-5.3-3.178-.252 2.19 2.829 4.3 5.3 3.178" data-name="Path 1676"/><path d="M1557.868 612.281c-.45.234-4.733.871-3.295 1.534-.649 4.783 10.184-1.488 13.644 4.462 5.995-2.837-7.035-6.853-10.349-6" data-name="Path 1677"/><path d="M1587.548 634.064c1.764-1.014 3.784-7.349 1.242-9.012-1.1 2.143-3.4 6.378-1.242 9.012" data-name="Path 1678"/><path d="M1580.672 626.546c-2.164.78-2.493.82-.353 3 1.711-.9 2.016-6.569.353-3" data-name="Path 1679"/><path d="M1572.994 638.643c-.08-1.834 2.244-2.177 2.29-3.8-2.812-1.844-7.612 7.818-2.29 3.8" data-name="Path 1680"/><path d="M1569.903 640.587c-2.107.1-.915 1.545.177 1.231 2.4-.914.865-1.317-.177-1.231" data-name="Path 1681"/><path d="M1554.853 589.322c1.139-4.9-5.473.871-3.749 2.743 3.451 3.3.12 7.9 5.113 10.09-5.874-11.546.608-2.993 2.615-6.48-1.292-.951-2.4-3.237-.871-3.856 2.37-.714-.45-2.566-1.123-2.244-.59-1.38-3.459 4.863-2.748 1.986a4.6 4.6 0 0 0 .762-2.239" data-name="Path 1682"/><path d="M1556.349 587.201c.491.136 1.737-.861 1.108-3.472-.906-1.161-3.15 3.036-1.108 3.472" data-name="Path 1683"/><path d="M1554.721 606.394c-.443-1.906-3.166-1.662-3.483-.506-.44 1.858 3.756 2.035 3.483.506" data-name="Path 1684"/><path d="M1570.576 599.924c3.355-.581-.565-3.059-2.821-2.592-5.494.928.749 2.561 2.821 2.592" data-name="Path 1685"/><path d="M1597.527 603.926c2.316-3.729-8.716-2.883-1.877-.107 1.4.343 1.054 1.4 1.877.107" data-name="Path 1686"/><path d="M1563.513 608.637c1.421.589 2.354-.121 3.419-.121 2.477-1.786-5.934-1.352-3.419.121" data-name="Path 1687"/><path d="M1111.604 693.57c-.236-1.241 0 .451 0 0" data-name="Path 1688"/><path d="M1144.443 675.33c-2.241-3.866-1.254-16.551-7.2-11.883-1.633 1.206.791 2.918-.107 4.229a10.025 10.025 0 0 1-5.064 2.938c.434 5.642-3.091 4.826-3.768 7.652-1.7 1.6-5.306 1.357-4.344 4.123-15.272-3.665-11.562 14.695-10.947 22.945-3.078 6.835-8.228 9.913-3.288 17.769 11.519 41.157 33.231-29.4 31.529-42.13-.536-3.151 6.957 6.121 3.186-5.642" data-name="Path 1689"/><path d="M1107.95 714.39c-.464-1.528 0 .716 0 0" data-name="Path 1690"/><path d="M506.384 753.643c.308-1.73-.134-.231 0 0" data-name="Path 1691"/><path d="M697.484 633.743c-1.148-11.785-8.248-5.647-13.183-11.177-5.875-10.706-17.946-8.682-27.893-10.947-2.155-3.521-6.113.595-8.355 0-2.094 3.732-1.726-.652-.821-1.882-1.238-5.277-8.183-4.025-11.658-6.588-5.681-5.432-11.5 3.665-14.6 7.295 1.075-2.234-12.586-3.81-2-3.405 5 .981 8-4 6.357-7.306-3.241.793-12.487-2.931-10.822 2.469.531 6.572-6.963-4.607 1.531-5.99 5.5-4.025.362-7.441-2.121-10.594-1.38-22.141-28.558-15.186-40.476-23.19-.624-5.65-7.722-9.6-12.593-10.121-6.143 3.3 2.635-3.885-1.89-4.706-5.874-.013.078-2.387-6.475-.823.112-2.384-5.915-.528.368-4.668-7.252-1.679-12.36 5.384-18.485.9-2.161-2.611-7.057 1.188-9.414.475-3.6-4.721-8.81-3.754-10.473-9.063-3.2-1.874-3.289 2.971-3.887 4-8.5 2.673-4.189 3.174-2.942 9.291 1.566 5.241-4.17 3.062-4.587-.241-.469-1.777 2.93-8.314 0-9.564-.314-2.824 4.853.027 4.464-3.261-.276.131 1.986 1.528 1.188-.352-4.631-6.049-10.436 6.827-16.945 4.711-6.77 3.931-6.9-.333-8.118 9.534-2.373-.308-12.4 12.3-10.54 12.77 5.866 20.753-.123 17.6-7.532 31.36-2.96.469-7.727 1.549-5.172 5.229-2.571 2.6-2.426 6.574-3.419 9.832-.282 2.212 3.2 8.435 5.124 2.068 1.365 6.8-7.73 6.215-8.068 12.641-.4 4.465 4.231 3.788 1.529 8.065 12.835 7.378 15.093 25.1 24.311 36.36 16.007 37.937 42.439-.145 29.528 73.849-5.684 20.731-1.754 42.982-13.526 61.786-4.852 5.5 2.293 10.263-.12 15.643-.689 3.568-5.59 9.741-.234 11.775 1.66 1.639 4.805-1.955 4.708 1.057-2.788 1.879.266 1.241-.834 5.417-1.3 3.084-3.309 7.4-.933 10.944 1.976 2.2-3.4 3.7-1.885 5.767 2.18 1.573 1.616 1.954-.354 1.4-1.41 2.234-1.051 7.534-4 7.545.236-.71.56-1.509-.112-1.66-3.383-.49-.588-2.162-3.3-2.693-3.982 2.019.218 2.693-2.714 4.236-5.647.664.258 4.729 1.66 1.051 3.258 3.856 3.526-2.274 3.877 1.773-.632 2.714-5.352 4.367.587 4.591-1.287 3.08.611-.2 1.413.818 4.261 1.813-.565 2.515-1.179 2.238-2.244-1.046-1.791 3.486-3.646 4.352 7.218 2.185-1.893 8.931 3.175 11.773.059 2.027-5.74 1.925-3.3 3.3 2.327 2.485 5.2-.668 5.773 3.537-.381 6.115 3.529-.261 6.341 1.053.311 3.469-3.072 2.513-.93 5.406 1.44-.753 7.826 1.557 7.06 5.419-8.317-2.239-1.311 9.542 2.126 3.054-1.123-3.43 2.891-8.006 6.241-6.834 1.789 1.132-5.654 3.4-4.019 4.36 1.271.675 3.673.032 4.351.818-.979 2.63-3.416-.019-2.344 4.006 6.253 5.017-2.4.984-5.408 3.524-3.454 3.427 18.82 3.477 21.768 4.249 2.373.375 10.275.2 7.285-2.938-3.194-.946-5.843.142-7.883-2.831-6.607-3.8-5.347-12.364-9.873-10.121-.3-1.177-3.5-1.565-3.545-2.708 12.908-1.651 2.529.719 2.952-9.649-1.057-2.912 3.617-6.595 6.232-6.354-1.659-7 6.733-9.448 10.476-13.293 2.035-2.641-3.324-2.4-.582-4.477 3.483-5.32-4.478-2.367-6.362-4.829-4.373-5.934 4.134-10.878 7.885-12.717 3.223 3.474 2.289-7.215 3.065-7.172-.582-1.853 2.993-3.971 3.287-4.352-4.15-4.442 1.092-3.832 1.887-.707.821-.12.821 2.944 1.769-.472 3.446-13.5-7.681 7.748-6.6-12.116 2.938-2.175 4.973 1.721 6.6 2.467 4.116-.512 11.1-.592 6-4.354 5.6-4.475-1.978-11.46 6.006-9.3 17.087.043 28.437-6.7 22.353-23.649-9.7-4.167-6.054-7.72-5.059-16.951 2.135 3.442-3.067 11.784 1.174 13.065 6.717 1.081 16.167 6.515 22.015-.357 8.127-15.754 30.912-28.131 27.192-48.361-2.456-2.244 1.328-1.1.579-2.828-2.756-3.933 1.466-1.3 3.171-2.7 5.29-5.921 8.384-7.248 14.722-6.949-4.666-1.566 4.434-2.591 3.529-5.059 12.853 3.834 18.128-7.28 23.646-17.881 2.844.112-.88-9.027 3.536-10.248 3.311-7.791-.979-19.9 1.879-25.536 3.88-.105-1-.907-.939-1.183 8.663-3.475 23.19-20.654 21.425-32.118" data-name="Path 1692"/><path d="M557.003 513.444c1.3.574 1.989-2.462.424-1.383.01-1.177-.257 1.008-.424 1.383" data-name="Path 1693"/><path d="M558.861 516.071c-1.167-.648-1.249 1.322-.8 1.931 1.241.681 1.915-1.356.8-1.931" data-name="Path 1694"/><path d="M560.732 520.07c-2.987-.86-.435 4.016.708 1.986a2.07 2.07 0 0 0-.708-1.986" data-name="Path 1695"/><path d="M560.26 524.184c-.577.156-.832 2.123 0 2.123s2.121-2.708 0-2.123" data-name="Path 1696"/><path d="M560.03 529c.234-.348-.124-1.281-.713-.818-.662.533.467 1.175.713.818" data-name="Path 1697"/><path d="M556.732 535.354c.7 0 1.056-.691 0-1.638-.451-.4-.7 1.638 0 1.638" data-name="Path 1698"/><path d="M403.523 600.36c.439-3.228-3.332-2.261-3.569-.3 2.32.769 1.343 1.518.365 2.73 1.336 3.539 6.129.086 3.2-2.429" data-name="Path 1699"/><path d="M405.044 599.447c-.187.365.234 1.016.368.668.3-.848-.368-.668-.368-.668" data-name="Path 1700"/><path d="M406.738 600.723c-1-.442-1.078 1.644-.418 1.992 1.718 1.025 2.418-2.6.418-1.992" data-name="Path 1701"/><path d="M411.223 602.351c-1.469.71.786 1.678 1.029.915.065-.372-.6-1.092-1.029-.915" data-name="Path 1702"/><path d="M540.235 504.33c-2.392 1.325 2.137 1.547 1.324.206a2.664 2.664 0 0 0-1.324-.206" data-name="Path 1703"/><path d="M549.108 501.872c-.279.454-.486 1.475.073 1.475 1.317.16 1.338-2.561-.073-1.475" data-name="Path 1704"/><path d="M550.723 506.151c-1.1.641 1.188 1.93 1.467.9.142-.491-.7-1.257-1.467-.9" data-name="Path 1705"/><path d="M557.011 545.382c3.234 1.348 5.065-3.957 1.963-3.781-.737.639-2.939 3.588-1.963 3.781" data-name="Path 1706"/><path d="M849.562 264.667c1.8-.424 1.4.2.529 1.325 5.931-3.711 3.818-2.475 1.325 2.21 1.965.464 3.81-2.682 4.944-.534-1.123 1.729.116 2.051.665 3.311.683 1.021-5.258 6.789.476 6.145 1.56.914 7.905-3.279 6.054.177-2.7 2.378 4.453 4.542 1.849 10.006-13.384.882 1.483 5.02-9.218 9.582-4.607 3.792 2 1.325 3.576 2.867 2.836 1.238 4.792 1.872 7.408-.088 2.352 2.74-13.283 4.2-14.162 10.724 2.931 1.209 4.483-4.518 8.427-1.139 7.2-7.39 20.745 1.024 27.719-7.027-3.5-1.293-6.234-.439-1.2-3.577 11.837-12.687-8.679-5.419-4.456-9.527-.892-4.054-3.271-10.679-8.25-11.738-1.7-4.376-4.486-11.208-9.763-9 9.883-14.927 9.326-12.345-4.587-13.352 1.124-3 8.456-7.811-1.5-5.807-4.823-2.641-3.282 2.719-5.824 1.946 1.4 3.963-5.234 2.6-.879 7.947.238 2.667-5.357 3.63-3.135 5.553" data-name="Path 1707"/><path d="M829.609 298.986c6.555 4.293 11.32-5.41 17.827-4.118 5.355-10.358-3.067-9.95 5.475-14.888-1.78-12.736-16.876-.584-10.773 1.651-4.6-2.547-7.556.828-13.06-.888-1.336 3.3 3.643 2.475.352 6.354.812.8 4.922-.469 4.466 1.71-1 .571-2.064 2.174-.464 2.71-1.341 2.593-7.8 3.987-3.823 7.47" data-name="Path 1708"/><path d="M793.337 207.264c5.754-4.036 20.7-6.3 16.2-15.057-1.107-.809-5.076 1.118-3.225-1.282-4.62-.255.341-2.44-2.776-3.309 1.024-6.382-1.931 2.839-6.263-3.839-3.084-.539-.638 2.675-2.552 3.485-3.952-2.934-3.633 2.813-5.486.711-2.852-1.228-3.714.214-1.858 2.236-1.912-.057-4.861-7.063-7.057-.477-.952 1.128-4.9-4.19-5.4-.228 1.14 3.791.045 1.994-2.713 2.7-1.568-.746.536 4.864-1.891 2.708.375-1.609-.714-4.166-2.7-3.887 7.293-4.591-13.074-11.425-4.583-2.938-2.585 1.73-4.572-3.686-5.308 2.233-.372 1.488-4.119.529-3.054 3.536-.053 1.3 16.283-4.694 9.527 1.638 5.754 1.459-4.615 1.842-6.687 2.273-3.014 1.891 2.2 1.839 3.443 1.1 5.167-.488 1.528 3.665 6.261 1.856.065.277-1.486 1.651-.619 1.714 2.97 2.767-4.391 1.97-4.322 4.057 1.8 1.464 6.5 1.153 8.433-.523 6.5 7.226 15.132 3.895 22.63 1.285" data-name="Path 1709"/><path d="m758.314 187.618.069-.04c-.026-.021-.049-.019-.069.04" data-name="Path 1710"/><path d="M939.355 54.392c2.512 7.784 2.52.314 4.955 1.628-2.706 4.1-.55 1.486.448 4.147-1.789.459-2.987-2.166-4.692-1.191 3.879 6.642 14.939 15.7 17.833 3.668.958 2.257 6.8-2.77 3.263.788-2.512 1.037 1.4 3.059 2.791 2.3 1.053-.126 6.282-4.563 3.263-1.378.364 2.273-1.81 1.555-3.175 2.127-.56-.059-1.206 1.93-2.477 1.579-12.995 1.319-11.513 8.224.092 4.285 10.087-.016 3.15.7-2.024 1.545-1.614 1.008 1.308 2.182-1.292 1.986-1.754-.823-5.993-1.654-4.77 2.029 2.354 2.859 14.631 3.357 11.663 4.147-3.389-.829-4.316 1.809-.671 1.844 5.193 7.583 7.008-1.659 9.36-5.678 1.7-3.225 5.518-2.048 4.54-6.933 4.094-2.2 1.279-5.462 6.046-7.014 2.043-1.553 13.009-.534 8.521-4.147-4.336.617-3.084-1.584-5.073-2.615-2.99 1.724-2.418-1.832-7.373-.657-.211-2.714-2.936-8.832-5.073-3-3.134.418.855-2.887-.227-4.019-2.952-3.258-6.638-3.129-9.977-3.882-2.175 1.678 2.41 1.356-.874 3.926-.4 1.622 3.847 7.63 2.41 8.365-2.722-2.789-8.564-14.931-11.569-4.9 3.177 5.636-.938.71-2.791.172-1.314.144-1.834 0-1.226-1.4-6.1-.324 7.282-1.148 3.151-3.853-3.233 1.906-7.2.743-9.8 2.979.614-3.218-1.321-2.466-2.8-1.571-2.159 5.239-4.357-1.665-2.448 4.714" data-name="Path 1711"/><path d="M975.811 45.427c8.827 1.571-5.476-.947 4.868 5.376 4.531-.689 22.479-2.673 10.588-.427-15.71 2.63 2.633 4.344 7.853 4.14 7.741 6.175 17.766-1.394 24.189-5.725 2.824-5.858-16.851-8.011-19.766-4.413-4.014 1.019 1.807-2.757-1.15-3.542-3.885-2.617-3.408 7.489-5.744 4.515-1.77-.86-2.419-4.362-4.671-1.595-2.33-.394-7.831-4.906-9.271-2.92 1.592.427 2.49 2.8.971 3.185-.2-.783-2.813-1.9-3-1.6-.209.936 3.194 2.714.442 2.649-2.317-1.847-5.274-5.832-5.04-1.236-1.652.037-1.734 1.038-.27 1.59" data-name="Path 1712"/><path d="M1010.946 73.412c1.541-2.338-8.014-1.017-8.03-3.536 3.89-2.017-2.805-2.59-4.328-2.384-1.454-.732.086-3.373-1.754-3.885-3.174-1.365-15.074 2.362-7.512 2.483-.161.7 1.829 2.3 2.212 2.025.128 1.2-.448 3.1 2.027 2.907 4.19-.3-3.585 4.116-2.915 5.111 2.69-.041 5.432 3.287 8.379-.354 2.346-1.824-.193 2.008 0 2.306 4.255 1.132 8.089-3.574 11.921-4.674" data-name="Path 1713"/><path d="M1149.962 135.01c-.37 6.205 7.969.764 6.944 5.19-2.051-.528-1.74.9-.113 1.521 1.376 2.383 2.874-.525 2.344-1.521-.589-1.069-2.344-2.123-.467-1.534 2.32.861 2.657.571 2.944 2.23 7.059.4-5.861 3.407 1.528 3.883 2.732 1.354 26.869 5.036 15.682-1.236-17.034-15.326.207-19.809 8.232-32.127 4.021-7.422 22.583-14.656 34.928-16.878 25.541-4.859 26.155-20.331.466-8.36-14.2 6.075-27.727 1.994-39.186 11.538-1.59 3.348-.4-.061-2.944.585-4.56 2.726-2.116 2.765-6.821 3.172.767 3.577 1.4 4.427-1.877 5.652.8 4.776-12.969 10.633-7.54 10.116 2.729 3.619-2.295 3.871-4.111 4.121-.343 3.11-2.619 3.024-4.244 3.764-2.086 2.978 6.325.844.947 4.593-.322 4.663-6.465.52-6.711 5.292" data-name="Path 1714"/><path d="M1135.745 157.318c-5.56 3.064-2.515 9.334 2.719 5.907 7.846.262 6.767-7.577-2.719-5.907" data-name="Path 1715"/><path d="M924.001 369.497c1.659 6.523.191 17.871 8.478 9.017.9-6.587-2.82-15.5-8.478-9.017" data-name="Path 1716"/><path d="M931.606 361.491c2.268-6.574-7.261-1.96-4.591 1.943.761 5.776 5.047 1.938 4.591-1.943" data-name="Path 1717"/><path d="M946.401 389.52c11.038 2.627 14.366 13.16 15.938-3.466-6.824 4.419-13.894-2.906-15.938 3.466" data-name="Path 1718"/><path d="M1120.488 40.398c1.073 2.641 8.2-1.5 9.35-2.47-1.37-.978-18.986 1.757-9.35 2.47" data-name="Path 1719"/><path d="M1125.955 43.755s1.234.7 2.118 1.236c2.5.66-.147-4.461-2.118-1.236" data-name="Path 1720"/><path d="M1130.365 41.988c2.574.96-3.673 5.77 4.885 3.973 3.344-.73.52-4.915 6.033-3.212 2.228-2.735 7.69-.687 10-4.081-11.511-6.942-10.071 1.432-15.94 1.89 2.737-3.644-7.354-4.362-2.178-.276-.215.8-4.2.391-2.8 1.706" data-name="Path 1721"/><path d="M1143.338 45.898c3.242-2.965-4.743-1.777-1.737.354.737-.027 1.3.273 1.737-.354" data-name="Path 1722"/><path d="M1146.013 47.983c1.541.823 5.328 1.167 3.885-1.526-.818-1.738-7.821 1.652-3.885 1.526" data-name="Path 1723"/><path d="M1157.206 45.216c-.532.825 7.512.772 4.644-1.726-1.037-4.033-10.4 1.328-4.644 1.726" data-name="Path 1724"/><path d="M1144.845 35.016c1.421-.174 1.547-1.48 3.172-1.053.595-1.772-5.623-.933-3.172 1.053" data-name="Path 1725"/><path d="M1163.028 41.634c.7.442 2.2.26 2.378-.348-.2-1.644-4.255-1.608-2.378.348" data-name="Path 1726"/><path d="M1166.466 38.284c6.137-.549 7.547 3.214 14.918.7 1.714-4.709 12.023 4.048 6.089-4.85-2.247-1.815-2.268.64-3.8 1.236-1.614-.159-8.293-3.052-4.233.539-.53 1.912-2.7-.472-3.875-.888a38.6 38.6 0 0 0-9.008-.794c-3.627 2.182 1.766.952 2.383 1.683-.381.166-11.4 1.612-2.47 2.379" data-name="Path 1727"/><path d="M1171.941 32.81c2.018-.209 2.992-.121 4.32-.8-.12-2.445-7.521-.8-4.32.8" data-name="Path 1728"/><path d="M1177.591 32.199c2.3.99 7.772 3.123 6.347-1.775.013-2.118 4.926 2.314 3.1-1.242-1.882-1.955-9.7-2.319-6.008 1.6-1.448.657-6.864-1.276-3.435 1.418" data-name="Path 1729"/><path d="M1186.859 25.927c1.407.211 6.349.467 5.65-1.33-1.687-.84-11.306.485-5.65 1.33" data-name="Path 1730"/><path d="M1191.622 30.341a2.624 2.624 0 0 0-3.977.7c.029 1.558 5.327 1.033 3.977-.7" data-name="Path 1731"/><path d="M1205.123 28.663c4.424-.022-.12-1.627-.879-1.151-.182.539-.182 1.151.879 1.151" data-name="Path 1732"/><path d="M1209.185 27.34c.687.978 6.808.113 5.382-1.064-1.131-.617-11.435-1.21-5.382 1.064" data-name="Path 1733"/><path d="M1211.568 35.267c-10.047 3.912 14.514 5.357 11.557-1.67-4.88-4.623-6.5 3.939-11.557 1.67" data-name="Path 1734"/><path d="M1191.087 40.221c3.767 6.6 24.238-5.041 10.24-3.359-3.45.25-9.2-1.475-10.24 3.359" data-name="Path 1735"/><path d="M1198.327 35.983c1.762.222 6.145-.735 4.411-2.993-1.877-1.167-9.982 2.462-4.411 2.993" data-name="Path 1736"/><path d="M1181.124 43.229c-.419 6.553 7.263-.987 9.087-1.151-2.544-.344-13.125-2.756-9.087 1.151" data-name="Path 1737"/><path d="M1189.414 47.11c1.791 2.9 6.733.281 3.7-1.325-2.33.4-4.118-.088-3.7 1.325" data-name="Path 1738"/><path d="M1178.73 43.047c-1.947-1.069-6.866 1.529-5.909 3.18 2.678 1.507 10.2.139 5.909-3.18" data-name="Path 1739"/><path d="M1334.965 114.655c0-.029-.105-.038-.105-.038a1 1 0 0 1 .105.038" data-name="Path 1740"/><path d="M1472.585 108.003c-1.611-.2-11.361.845-7 3.411 3.557 4.52 13.837-2.325 7-3.411" data-name="Path 1741"/><path d="M1622.419 297.236c5.768 8.242 1.686 26.448.714 36.8 2.38 9.4 3.676-6.457 8.823 2.914 3.325-3.692-3.7-6.236-4.228-9.716 1.743-20.311 10-5.874 8.823-11.025-7.425-9.385-.989-31.233-9.449-35.835-2.408 3.389 4.67 3.615-3.186 6.885-.895 3.191-.022 6.626-1.5 9.974" data-name="Path 1742"/><path d="M1638.39 318.768c.07-.129-.143-.238-.443-.36.222.29.4.462.443.36" data-name="Path 1743"/><path d="M1358.965 48.6c12.534 6.733 10.011-3.887 23.122-3.973 3.429-.62 11.768 1.054 7.148-4.674-.713-.89 0 0 .708-.973 10.515 1.935-11.3-12.374-14.832-4.228-2.947-1.6-11.068 1.287-7.851 3.874-.907 2.864-6.411.7-5.473 4.057.574 1.569 6.57-2.7 3.006 1.944 7.138 4.228-8.586-.491-5.827 3.973" data-name="Path 1744"/><path d="M1376.089 47.46c.437-1.065-.8.525 0 0" data-name="Path 1745"/><path d="M1397.979 46.667c1.584-1.5-.794.348 0 0" data-name="Path 1746"/><path d="M1392.76 45.598c-7.014-.346-16.932-.285-21.095 6-1.1 1.7-5.319-1.349-2.729 1.686-.075 1.084.389.957 1.4.88 3.976-2.566 5.052 3.237 8.387 4.233 4.931-.6 29.533 8.489 22.782-2.561 6.968-9.858-.188-10.617-8.3-6.965-3.383 2.076 2.652-2.312-.447-3.274" data-name="Path 1747"/><path d="M1403.445 67.218c-5.808 7.91 8.386.041 11.891.359 7.709.405 27.983-1.292 11.883-8.942-4.234-4.033-6.542 1.737-9.65.588 4.529-3.823 1.563-7.74-2.708-3.651-.678-.352-.885-2.818-2-.466-3.585 3.607-6.1 8.285-9.413 12.111" data-name="Path 1748"/><path d="M1599.25 101.189c7.724 9.354 13.927 2.976 23.436 2.494 2.507-.372 6.454 1.655 9.028.48 1.04-.27-7.3-3.178-6.059-7.016.364-2.891 5.829-.585 2.137-.115-3.132 5.392 10.406 9.3 11.9 1.544 6.1-3.207-12.261-4.984-14.873-5.947-2.7-6.521-6.035 4.955-8.913 3.217-3.979-11.818-22.283-1.568-16.651 5.343" data-name="Path 1749"/><path d="M1646.943 101.189c4.665 4.979 27.617 7.322 22.713-.241-6.183-.525-12-3.859-17.725-2.016-2.226 2.163-1.008-1.512-1.786-1.421-2.139-1.6-5.328 2.3-3.2 3.678" data-name="Path 1750"/><path d="M1613.039 120.217c5.529-1.973 10.85 1.131 17.734 1.426 5.805-4.1-4.668-8.116-9.044-7.489-2.241.2-2.9-.053-4.156 2.856.217.941-6.126 1.314-4.534 3.207" data-name="Path 1751"/><path d="M1615.786 114.976c2.111-.649 6.824-3.143 2.375-5.349-4.7-.644-4.226 2.494-2.375 5.349" data-name="Path 1752"/><path d="M1589.741 98.575c2.665 2.569 5.92-2.529 2.969-3.813-2.694-1.529-2.847 2.931-2.969 3.813" data-name="Path 1753"/><path d="M1593.661 111.777c-6.346-2.3-3.073.8-.6 3.33 2.335.55 1.895-2.056.6-3.33" data-name="Path 1754"/><path d="M1818.934 144.508c1.247.056 2.094 1.128 2.807-1.155 2.161-2.139 2.5 2.544 5.614.313 6.612.006 13.042-2.608 3.735-6.547-3.821-2.072-20.225 5.379-12.156 7.389" data-name="Path 1755"/><path d="M1876.961 187.086c-10.953-4.668-3.844-7.229-17.47-7.677-.011-1.729-6.99-.989-6.087-.36 2.043 1.454.217 4.574 1.418 6.443-7.714-.933-1.443-7.8-6.448-9.266-9.8-10.263-26.729-15.658-40.076-20.474-9.468-4.078-19.511-1.762-29.118-3.268-9.085-2.987-6.6 2.534-2.837 8.035-3.745 4.545-7.472 3.037-10.406-.885-5.325 1.858-3.207-3.548-5.914-6.081-8.476 9.228-28.135-5.8-33.976 5.118.66 2.748 1.539 6-.976 1.577.3-2.62-1.155-5.363-4.333-5.384-7.863.906.711-3.836-2.03-6.87-10.724-14.809-34.118 3.867-43.243-8.036-1.874.118-3.118-.809-4.763-1.681-.927-.405-3.541 2.014-3.885-.354-1.158-2.127-5.617 1.076-5.123-2.025.868-.9 5.8 2.639 2.655-.526 3.872-7.883-12.476-4.324-15.538-6.006-6.63-3.464-15.494-1.74-23.12-3.177-2.225 1.722-10.314-4.62-6.8 1.236.263 3.765-11.365-1.568-8.733 4.851.405-.635 1.81-1.742 3-1.147-3.209 7.341 2.813 7.476-3 7.06-1.51-3.635-4.792.329-7.507-.791 2.348 3.242.36 4.934-3.529 2.749-5.753-8.55-15.7 3.8-21.806-3.635-1.214-.944-2.655-3.842-2.824-.8-1.978 1.711-3.837 10.264-7.762 8.748-2.022.429-19.1-14.264-11.385-11.481 2.38 1.446 4.885-4.019 1.5-3.88-3.55-.359-1.143-1.131-.177-2.647.571-1.139-2.389-1.742-2.555-2.652.681-.22 2.693-.033 1.5-2.2-1.759-1.29-3.872-.563-3.622-3.622-2.373-2.547-8.684 2.66-9 .179-.978-1.861-5.161 1.949-6.362-.794-8.413-5.811.153-1.509-9.527.169-1.49 1.574 1.63 5.1 0 7.417-5.173-2.767-11.966.276-16.768-3.437-1.9 2.483-11.165-.132-7.591-2.745-7.012-1.973-19.024-4.392-26.565-.179 1.958 3.408-1.255 1.467-2.3 0 1.579-5.2-2.006-2.676-4.848-2.113-4.223-1.107-10.309-5.644-14.041-.616 10.771 1.9-9.051 4.481-12.612 5.649-1.622-1.5-14.121 7.236-8.39 2.2 2.727-7.325 50.752-20.991 39.365-27.453-4.912-2.51.225-.982 2.564-.443-.624-10.521-21.862-15.183-33.19-9.615-12.286 1.776 13.581-6.018-11.119-5.735-8.124.88 5.583-2.265 3.081-3.966-6.28-6.792-27.614-.689-24.037 9.626-1.336.038-14.529-.514-9.939 2.727 4 1.942 3.367 4.746-1.239 1.585-5.548-.506-11.8 3.091-17.384 4.681 4.378-4.44-3.752-6.317-6.7-3.086-13.229-1.807-2.107.783-12.014 3-5.655 1.195-12.282 1.081-17.827 4.411-2.8 1.3-4.652 3.5-7.594 4.5-6.408 4.864.649 3.6-1.671 5.644-.8-.549-2.474-.647-2.563.354 15.532 10.621-29.579 2.513-31.158 9.443 1.464 4.4-.059 10.932 8.119 11.476 8.894 7-7.587 5.087-10.59.08-3.464-1.541-8.109-.266-10.5-3.614-2.416-2.316-8.663 4.376-3.97 3.362-.5 2.716 3.957.488 4.329 2.558-.115 5.449-7.306-3.3-10.156.528-.472 5.491 8.183 6.1 11.645 8.028 3.081 3.553-3.791.663-4.845-.788-16.026 1.478-8.709-4.649-10.248-15.191-7.563-3.856.27 3.777-3.348 6.008-9.456 3.721-12.57 8.178-2.912 13.776 1.478 3.635-4.644 4.3-3.794 8.639 1.547 12.837 9.057 2.2 17.028 6.714 11.247 8.181 3.236 5.708 3.616 11.291 1.99 1.922 10.972 2.491 2.831 2.654-7.73-1.962-3.033-17.591-16.332-11.916-7.355 1.7 4.689 9.287-9.443 18.978-8.443 6.432-5.744 2.982-16.852 2.646-13.808-5.585 13.012.29 12.534-8.57 7.492-3.963 1.837-3.987 5.907-8.382 2.816-4.343-8.8-3.867-4.147-9.708-1.544-6.859 3.824-13.778-3.084-18.265-2.4-2.965 4.84-6.524 4.059-10.861-6.725-8.66-22.394-6.462-23.3 6.183-2.411 3.013-11.886 6.22-9.889 9.625 8.167-.356.687 8.933 1.765 11.995 4.523-1.47 14.487 7.564 8.213 11.216-11.566-7.02-24.888-14.251-39.275-13.77-4.327-.5-8.368-9.266-12.274-4.422-.81 5.922 14.336 6.569 9.89 14.14-5.33 2.11-5.312 8.559-7.059-1.238-7.449.729-15.773 3.123-23.705 5.354-.863.265-9.275.675-5.26-.488 1.938-3.008 5.843-8.518-1.569-4.516-2.437-.448-4.6 6.768-5.505 3.044-9.156-1.139-12.087 6.425-20.82 7.646-3.687 7.411-10.479 9.178-17.2 2.628.74-4.4 5.855-3.592 9.3-4.44-2.045-7.845-11.566-5.74-17.691-6.494 5.394 2.576 4.753 7.591 1.978 12.422 5.824-.075 1.863 11 .486 9.714-5.266-7.612-17.71 1.223-21.058 6.982 10.464 8.985-10.647 5.5-13.822.494-6.963 3.26-.148 7.866 4.2 9.059-3.307 5.839-8.381-.611-12.594-1.486-4.472.137-2.4-1.888-3.525-4.773-4.981-9.763 7.47-3.746-7.335-13.406-2.472-1.531-4.075-3.859-6.167-5.684 57.332 25.265 62.206-11.841 6.169-21.221-1.456 1.161-3.716.714-5.1-.746-.2-1.989 4.662.115 2.057-2.8a10.816 10.816 0 0 0-8.57 1.183c-1.673-1.447-4.327 1.2-5.6-.2-8.79-3.721 1.322-1.675 4.295-5.508 1.761-4.657-7.794-5.475-11.354-5.014-3.612 7.63-4.166 1.914-1.23-1.655-5.7-4.089-5.17 5.054-9.551 5.1.418-10.344-3.083 3.866-8.315 1.813 11.754-15.943-5.229.794-12.669 1.643-5.566-2.977-1.539.356-4.521 1.644-3.643-2.7-6.859 6.521-10.539 2.148-3.555-3.917-2.33 2.968-5.1 3.2-3.355 1.684-3.472-5.827-6.5-.5 1.71 4.44 1.512 3.105-2.214 3.289 1.144 1.282-.687 3.32-2.226 2.635-.234-3-2.936 1.03-3.041-1.07.829-6.9-3.177 1.582-4.944 2.968-4.812 5.244 11.13-2.51 6.331 4.528-6.928-3.839-10.948 9.385-16.537 14.884 2.215 3.236-8.116.464-2.78 4.451-3.324 8.854-11.664 10.99-16.958 18.919-4.193 4.995-1.678-6.878-5.926 4.113-8.06-.434-4.678 3.745-8.968 3.3-3.465 3.45-11.951 6.848-7.318 13-4.8 10.178 5.279 3.212.249 14.73 1.311.006 5.486-2.939 3.612.986-7.033 12.88 19.879 6.692 22.957-1.08 1.576-4.056.3-4.708 1.73-.233 1.032 1.142 2.539.277 2.791 2.462.537 6.346 4.636 12.361 8.314 18.184-1.022 3.217-2.091 4.394.415 7.325.777 3.421 9.5 1.863 7.32-2.145 2.737-2.722 7.982.517 9.382-3.368 2.332-3.464.622 5.236 2.879-.992-.228-1.121 3.062-6.947.986-4.847-.662.455-2 3.348-1.654 1.555 2.713-8.194-1.957-12.567 8.488-15.138 7.424-5.631 4.127-12.06-4.609-14.154.41-3.745-.356-8.086 1.888-11.186.268-.807-1.883-3.161 0-3.131 2.69.9 2.483-1.74 1.733-3.692 2.93.462 8.149-3.823 11.843-5.839 13.695-6.37 1.049-8.2 8.894-14.159 3.467-2.592 5.552-4.8 10.121-3.212 14.926.509 3.743 11.277-4.453 16.53-7.547 7.555-14.039 5.079-6.655 18.031-1.2 2.855-2.671 10.47 3.941 9.205 3.027.362 4.016 5.561 7.9 3.962 7.757-4.247 13.8-3.831 22.547-5.359 2.566 1.252 3.955 4.805 7.979 3.209 3.574 1.95-7.851 1.279-9.047 4.528-5.641 1.475-27.006-3.756-23.289 7.988 2.638 4.383 6.751 3.284 2.214 10.61-6.368 1.965-10.047-10.749-14.884 1.488-3.749 3.437 2.713 15.725-6.252 16.037-6.382 7.84-6.931-1.687-13.087 0-28.171 13.58-17.929-4.569-30.773 4.7-4.646 2.99-1.376-1.986-3.614-1.568-1.105.609-5.666-1.4-4.281-3.376-6.007-3.153-1.038-8.539 4.038-9.543 2.344-3.04-4.816-1.77-2.973-5.256 2.4-1.541 2.209-5.079 1.236-7.58-7.7 7.1-15.559 3.215-13.085 17.283 1.512.616 5.28 1.2 1.569 2.962-.324 5.376 5.617 4.159.742 10.446-15.809-4.146-21.53 14.774-35.545 19.913.73 8.228-6.358 3.844-7.076 9.628-4.147 3.3-16.827-7.092-10.454 2.793 3.088 5.175-6.737 1.04-9.295.824-21.862 4.719 18.406 10.55 11.6 27.732 1.365 17.9-31.74.842-37.269 8.473-7.955-.207-2.9 6.661-2.465 11.774 2.485 6.159-4.748 12.451-3.049 18.253 8.787 3.336-7.089 11.977 11.352 8.551 4.655-.8 5.089 9.786 9.883 5.6 8.437-6.02 12.478 1.757 23.11-9.043 1.429-2.772 4.912-3.682 5.435-6.25-9.422-11.486 13.039-14.307 16.21-21.23-3.874-16.856 17.136.541 22.793-11.03 15.229-8.312 16.031 13.945 37.188 20.986 14.312 8.912-.571 21.812 10.036 11.6 7.366-6.547-3.558-4.9 1.485-10.612 2.118-2.072 7.85 5.81 7.985 1.743-1.748-4.8-12.084-5.7-12.43-9.722 2.029-2.606-5.293-1.236-6.743-2.22-3.083-7.472-22.539-19.194-7.325-23.689 3.159.086-.624 8.429 6.087 3.942 2.55.182.056 3 2.469 2.958 2.585 1.864.948 4.965 4.526 6.665 4.655.927 9.277 5.507 13.739 7.328 10.436 8.846-1.057 14.72 12.014 21.962 5.335 3.132 2.083 6.936 4.524 11.768 5.491 2.568 10.72 5.532 5.918-2.789 1.262 1.812 2.255 1.115 4.443 0-.761-.756-7.708-2.976-3.775-4.861 1.606-.273 4.062 4.37 6.079 2.719-.286-3.241-4.016-2.914.663-3.214-.842-3.3-3.241-1.153-4.858-5.6-1.073-2.764-5.226-4.585-2.47-8.47 2.606 5.083 3.69 2.955 6.748 3.22 3.887-1.435-1.96-1.143-.9-4.041.083-1.571.49.569.9.25 1.659-1.2 1.863.191 3.048 1.809 1.051-5.315 5.912-.834 9.464-1.077 1.636-.065 21.763-3.242 11.763-4.607-12.4-8.167.134-10.239 0-18.269 2.249-4.666 5.162-2.115 6.173-5.917-1.052-1.383-.85-4.188 1.478-3.537 2.143-1.054 3.665-5.749 6.657-6.089 5.708-1.26-2.887 2.606 3.882 3.542 2.013 1.451 3.55 1.372 5.5 0 4.453 1.7-7.038 2.627-3.121 5.253 6.944.758.123 5.776 5.681 5.855 3.091-1.523 5.555-1.566 7.738-4.367.92.49 7.778 1.285 6.914-1.234-20.393-2.239-.987-10.995 9.044-12.175 6.559-1.737 2.011 2.225-1.732 2.879-1.775 1.786 3.426 2.866-.495 5.1-.375 3.85-6.429 1.753-4.933 5.344 7.414 5.194 16.251 10.035 22.707 16.218 6.245 21.332-34.848.657-43.931 3.778-6.427 8.24-38.245 7.177-34.73 14.642 4.363-.239 1.659 0 3.459 3.792 3.815 3.515-2.912 3.979-.086 5.268 4.989 1.867-3.268 1.989 1.563 4.264 4.037 2.85 16.044 12.17 19.17 4.046 11.428-.767 4.26 10.044 20.165-.006 11.376.349 4.124-1.727 5.426 11.762-.067 3.22-2.952 6.3-4.194 9.293-4.081 11.822-3.485 9.775-.432 22.264-.47-13.35-12.387-9.755-22.356-11.395-11.379 7.993-26.747-3.58-38.751-4.517-3.775-6.094-14.183-3.231-16.95 2.635 1.823 2.513 1.726 6.9-1.895 7.566-5.725 2.593-11.006-6.453-17.859-4.182-4.116.069-2.579-7.969-7.488-6.851-9.312-5.6-11.1.963-20.814-7.976-9.135-.14 3.746-5.161 2.064-9.537-6.035-6.138 1.075-6.274-1.241-9.709-6.379 5.009 2.376-6.95-12.932.793-6.232-.721-10.261-1.781-16.106 1.678-6.3-5.322-13.974 1.314-21.393.566-6.33 1.544-15.254 10.775-20.237 7.91-3.3-1.777-6.66 1.03-9.789-.5-3.768.367-7.63-7.285-8.653-.241-4.523 14.229-18.359 8.041-19.16 26.657 2.483 10.232-12.322 13.591-18.267 18.509 1.523.057 28.789-.25 23.822.048-28.531-5.481-32.764 12.229-43.734 34.2-2.472 4.046 8.043 3.341 3.284 11.339 7.609 8.727-6.6 19.444-2.38 27.07 4.355 2.411-2.56 9.127 2.631 11.191 14.8 9.5 24.57 36.838 47.133 41.435 6.886-3.923 21.276-8.706 27.413-1.863 53.342-26.536 27.168 10.574 55.622-1.228-.614 2.71.49 3.411 1.965 3.958 13.106 5.167-4.954 23.433 2.88 31.333 14.722 13.6 19.567 32.523 22.793 51.512-24.45 29.758.148 42.717 4.784 71.079-2.754 17.253 20.584 31.059 17.187 46.316-3.1 1.992 1.407 2.912 1.4 5.692-.59 3.44 3.25 2.483 4.69 5.261 5.033 1.673 10.754-1.116 15.959-2.472 3.518-3.966 11.135 2.909 15.226-1.064 3.349 1.195 3.938-2.225 8.559-1.726 8.3-3.073 38.995-36.3 31.185-43.856 6.968-15.9 22.843 3.373 10.362-35.874 1.421 2.306 2.312-1.944 4.194-1.651 10.695-13.074 32.963-14.034 26.247-35.956 2.2-15.369-4.6-12.017-6.089-24.26-.2-5.635 2.758-4.969-2.309-10.05 6.234-36.721 67.891-54.252 63.111-95.362-10.693 3.872-23.71 7.177-34.88 7.159a12.863 12.863 0 0 1-5.347-5.268c-3.993-.694-2.266-.14.657-1.721-2.319-7.784-13.766-15.176-20.739-20-6.282-23.187-10.572-7.478-13.253-32.735-.418-4.612-10.057-6.9-6.748-11.521-4.317-10.6-13.234-21.9-15.878-33.242 7.829 15.808 9.679 9.83 10.527 6.234 8.669 8.381 13.583 20.913 22.3 29.872 1.641 7.921-.12 11.972 7.571 16.787 24.364 24.263-1.584 54.134 45.827 30.2 3.223-3.343 9.159-2.284 13.251-4.614 6.95-5.178.075-5.15 13.659-9.623 5.639 1.5 3.9-2.788 7.569-4.443 5.035.41 4.3-3.129 7.068-5.835 4.555-.364 4.183-.148 4.2-5.36 5.5-7.815 16.358-13.176 2.464-21.221-13.334 1-8.835-17.391-10.935-13.09-6.145 6.714-13.006 13.712-22.544 10.862-6.036-.013-.652-5.357-1.151-8.381-.957-3.434-4.059-1.992-4.773.734.437 4.931-3.389-1.032-3.456-2.635.15-.836 2.118-3.45-.076-3.29-22.843-20.87-.7-30.718 10.2-3.459 6.132-3.962 7.96 9 23.937.737 10.372 22.248 49.3-1.312 56.86 17.852 1.978 1.454 4.981 1.458 6.248 4.209 5.177 3.142 12.183 1.193 1.726 4.939 15.84 21.441 16.87-6.572 18.688 1.81 2.1 23.506 9.366 58.981 26.889 73.964 3.563-2.837 3.874-6.429 9.143-6.178-8.771-1.917 5.628-5.516 1.4-10.7 1.869-7.583 4.111-10.452 1.8-19.406 1.383-6.014 6.655-6.142 10.953-8.4 1.848-5.544 10.157-7.615 13.416-13.172 2.891-4.164 8.663-4.111 11.583-8.8-.029-2.263-.628-5.145 2.561-4.858 3.8-2.786 8.159 1.887 11.435-2.215 2.979-3.8.751.633 3.373-.258 13.784-8.606 4.175 5.711 11.894 3.121-7.083 4.456 10.076 7.639 5.22 13.918 9.746-3.022-.581 17.108 9.709 16.206 4.5-.984 7.769-12.058 10.032-4.108 3.907 2.47.818 9.424 3.625 12.5-.059 3.027 5.422 8.26 2.387 11.111-.282.225.3 3.509 1.4 1.47 2.078 5.419-3.635 14.125-2.067 18.527 14.384 8.169 7.6 30.922 27.82 36.684 6.6 3.735.941-7.682-1.321-9.613-1.332-2.97 1.783-7.961-.907-10.371-4.942-8.047-15.038-8.275-16.455-17.371.041-1.075-.624-1.309-1.48-2.376-.5-.4 1.156-2.531-1.078-1.976-6.116-4.883 4.319-14.98 2.8-21.962 8.083-3.486-1.475 4.754 9.625 4.754 3.917 3.571 8.531 8.142 10.7 12.846 11.036-4.351-3.619 16.337 11.519 3.617 5.437-.1-.172-2.41.751-3.863 5.02-5.317 12.731 1.12 16.112-14.073.187-23.345-38.685-31-4.678-48.792 1.652 5.239 9.087-1.9 6.193 5.282.022 1.491 1.817 2.171 2.466 3.174 3.674.544-2.606-7.451 5.132-5.732 4.273-2.045 8.26-2.828 13.5-3.714 2.426-4.257 2.6-.743 6.544-3.434 10.047-.034 12.427-8.46 20.739-12.451 1.1-1.678 5.8-2.966 2.821-5.65 3.091-.691 2.126-6.175 6.26-7.949-.282-4.124 3.383-3.381 4.595-6 .875-2.494 1.137-6.848 2.821-8.91-1.872 1.285-2.552-.088-3.257-1.667-.7-.813-5.807.443-1.684-1.855 9.669-3.641-3.45-13.529-4.676-21.015-9.672-5.944-1.3-7.771 3.976-13.851 2.054-2.44 5.828-.895 8.025-2.647 1.935-2.962-3.934-2.74-5.475-2.3-3.419-3.607-5.741-3.34-9.444.36-6.022 3.526-1.029-6.106-6.617-5.293-6.375-1.156-3.875-7.937 2.115-5.745 8.346-8.48 22.682-19.784 13.244.356-4.123 4.62 6.784-3.1 8.65-3.885 4.1-1.025 14.929-1.743 11.652 5.028-3.344 2.206-2.051 7.181 1.85 7.063 4.139-4.392 9.538 6.658 2.914 5.027 8.156 7.2-5 14.041.348 15.707 1.4-1.625 2.962-4.183 2.477-.167 5.657-3.41 10.124-3.218 14.921-5.564 3.665 1.081.7-2.343-.447-4.06.989-2.639.037-7.067-1.145-9.8-1.5-3.266-10.857-10.154-8.13-12.883.375-5.3 7.508-3.443 9.186-6.888.5-7.952 8.9-10.607 12.715-16.238 17.769 11.775 35.878-25.3 44.84-37.685-2.76-11.119 13.025-28.08-1.411-33.36-4.284-10.168-8.221 3.769-13.514 1.762 2.142-1.805-.614-2.568-.44-4.759 2.73-1.169 1.073-2.724-.529-.447-.078 1.877-1.676 4.95-3.7 2.644-.647-1.512 1.641-4.049.26-4.939-20.313 1.818 17.714-19.651 20.568-24.8 8.363-13.565 28.877-11.524 39.357-8.925 6.681-5.11 13.833-4.827 20.841-.08-4.483-1.255-8.615 2.832-1.593 2.475 5.221-1.2 8.317-1.718 12.8-2.742 1.257.461 6.106.82 4.679-2.027-14.435.777 11.058-19.557 15.7-18.189 1.81 1.368 3.869-1.718 5.124-.611 2.895 3.306 4.344-.217 5.475.513 3.1.989-3.737 4.182-1.681 6.1 6.523-.837-1.726 3.236 2.654 2.556 5.317-2.6 8.792-7.017 14.3-7.232-4.931-3.938 7.268-12.441 10.063-7.158-2.231-.624-2.056.925-4.148 1.322-3.274 15.109-19.328 20.114-29.3 31.872-15.136 6.789-4.628 2.292-11.835 10.676-8.266.861-.891 53.889 5.2 39.451 7.523-2.534 4.317-13.612 13.683-12.876-3.591-9.09 6.687-8.283 11.395-11.572-4.017-3.58-.994-8.534 2.29-11.558-1.07 4.148 4.183 2.51 4.229-.537-.644-2.788-4.411-2.478-3.256-6.089 6.094-8.784-4.218-.866-4.768-7.059 5.191-9.192 10.875-12.277 19.78-15.537 5.84-6.544.247 8.1 3.7 2.3 5.888-5.6 16.031-8.689 20.122.534 7.355-13.4 25.27-14.479 36.536-23.125 7.266 8.409 18.482-2.544 6.094-6.711 6.162-6.819-4.173-4.741-5.649-8.65-.525-1.66-1.684-1.261-2.729-.085-.152.236-4.761-1.51-1.327-1.855 2.336.509 1.706-.336 1.587-1.419 25.464 12.747 13.176-16.412 24.531-10.685-.127 2.48-2.279 7.811 3.013 6.733 4.392-.431 10.275-2.065 11.022 3.159 1.557 1.842 12.853 8.776 12.54 3.8-.908 1.585 2.93 5.443 2.2 1.939 1.077-.772 2.882 1.437 3.276-.622.335-1.158-3.45-.5-1.423-1.675a8.648 8.648 0 0 0 2.56-.085c-3.348-2.423 2.285-2.663-.963-6.888 1.311-.391 9.751 1.834 10.146-2.729-.539-2.7 6.4-.718 3.258-2.829M1165.139 371.1c-3 1.777-9.771-3.824-8.228 3.292-.738 2.175 1.14 2.037 2.633 1.48.928.966 3.869 3.855.329 2.467-2.979 3.869 1.724.922 3.292 3.952 3.4 16.407-11.272 16.79-21.725 8.717-5.534 1.469-4.017-6.094-4.934-9.212 13.72-10.433-13.4-23.16-5.6-29.458-5.824-6.588-7.972-1.035-1.807-10.861-1.124-3 6.811-1.241 6.582-2.963 6.575-5.936 9.191-8.5 18.924-7.073 7.945-1.529 1.12 9.7 5.757 11.682-4.078-1.927-17.489-2.678-11.023 4.279-1.654.12-6.815-2.376-6.089 1.316 6.591 1.576 4.542 8.775 12.51 10.036 1.547 1.962-2.545 9.012 1.316 10.041-1.233-3.266 6.37-10.3 4.936-4.938-.727 1.7 9.62 6.532 3.126 7.242m290.131-96.459c1.636 9.679-30.145 33.325-30.37 23.916 8.207-.284 13.314-8.523 20.5-11.577-2.909.293 12.524-27.034 9.869-12.339" data-name="Path 1756"/><path d="M1435.41 624.618c1.606-12.518-.171-11.833-7.073-19.074.665-2.985-1.5-3.324-3.973-3.365-2.322-1.512 1.742-2.131-1.238-2.73-.949-.954 1.8-2.641.451-3.888-1.51-3.4-.986 1.21-5.572-3.448-2.281-.171-2.312-4.641-4.584-5.558-2.33 4.631-2.861-3.831-4.591-.172-4.354-6.036-11.117-7.842-13.862-14.305-2.284.027-1.724-4.7-2.729-1.872-14.275-4.778-16.2-1.88-5.343 8.673 4.65-.915 4.548 3.247 5.716 5.9 3.169 1.871 5.713 1.582 6.269 5.354 5.048 10.853 25.283 45.642 36.528 34.491" data-name="Path 1757"/><path d="M1460.634 588.415c-16.143-4.453-5.548 18.666-.086 23.562 10.14-1.847 2.947 3.59 9.271 1.678 10.857-1.978 3.375 3.23 8.913.349 3.092-2.131 1.576 3.035 2.467 4.064 5.209.92 10.987-6.338 9.444-11.3.853-3.724 7.65-6.2 5.3-11.648 4.754-6.784 3.968-.6 7.856-3.349-3.3-1.722-5.55-3.89-5.3-7.677-2.244-1.856-5.765-7.858-.793-5.922-1.432-3.934.021-1.8 2.119-3.615 1.858-.265 1.268-1.821.437-2.647-1.828-2.912 5.69.973 5.027-3.255-11.733-4.531-12.409-15.522-20.122 2.284-.3 5.028-5.1 5.885-6.961 2.033-2.977 4.823-7.979 9.248-13.6 9.972-3.489-.255.225 6.719-3.974 5.477" data-name="Path 1758"/><path d="M1564.432 412.501c-6.6 2.142-4.74 11.14-.813 5.3 1.643 1.5-3.58 14.734 1.754 8.234 1.3 8.595 13.532-15.124-.941-13.535" data-name="Path 1759"/><path d="M1591.923 402.136c-8.6-1.04-16.993.341-23.718 7.429-4.864.652-.445 3.317 2.325 2.274 2.429.357 3.422 1.588 3-1.89 3.743-.15 8.067-1.266 12.572-2.34 8.63-.2.307 1.826 3.231 4.722 1.091 4.531 10.516-3.389 6.923-4.5.091-3.273 4.349 1.716 6.848.743 2.26.188 1.789-2.379 3.256-3.132.884 3.1 2.758 3.576 3.18-.26 5.392-2.9 1.513 1.773 5.022.965 7.122-4.652-.137-7.937 5.083-12.4-2.105-8.532 10.8-15.747 1.144-23.705.306-.679.49-4.29-1.9-2.909.954 5.193-4.505-1.541-3.037 2.025.6 1.761-2.417.529-1.861 2.169.624 8.494-2.378 16.256-9.31 21.629-13.478 3.558-3-4.524-12.755 9.175" data-name="Path 1760"/><path d="M1573.699 414.711c-.167 3.051 2.968 6.995 6.491.321 2.473-.635 6.422 1.462 6.226-3.8-3.526-3.783-9.917.794-12.717 3.48" data-name="Path 1761"/><path d="M1614.167 358.754c-3.188 2.37 1.62 3.719.049 6.572.908 2.676 2.568-.813 5.338-.789 1.348-2.177-3.587-1.856-3.129-3.891-.171-.869 1.553-1.512 1.405-.437 1.244 2.073 2.354-.131 3.577-.711 3.4.443 6.617 3.745 10.459 3.1 2.25-10.722 8.432-.247 11.518-10.2-4.15.521-.826-2.072-1.15-4.193-3.1 4.529-7.812 1.04-11.687-1.187-11.956-12.833-5.218-.7-9.846 8.824-7.494-1.794-2.378-.23-6.534 2.911" data-name="Path 1762"/><path d="M1479.116 641.865c6.855-8.453-8.091-1.928-7.4-6.585-.9-1.8 6.649.507 6.7-2.244-2.042.01-4.587-.26-6.593-.234-4.282 1.625-7.563-2.719-11.186-2.113-1.365 2.646-2.359 2.958-5.063 1.761-8.253 1-9.886-6.21-17.645-3.992-2.4-1.231-2.681 1.818-3.3 2.585-3.542 1.888 1.174 2.489 2.478 2.236 1.968.4.882 4.684 3.885 2.7 12.307 2.764 25.579 3.714 38.127 5.89" data-name="Path 1763"/><path d="M1507.007 600.565c-1.169 1.89-1.694 5.544-2.355 7.642-1.51.7.278 1.8-.825 2.592-4.121 4.143 8.578 4.135 1.531 13.535 7.77 11.5 3.537-12.4 7.527-13.3 6.418 2.432-4.137 2.19 2.357 4.944 3.51 6.776 1.986 6.459 8.355 4 3-1.3-3.531-4.869-1.875-7.065-7.945-7.248.284-5.861 2.939-11.422 6.953-2.285-3.984-1.5-5.772 0-1.29.593-.113.706-1.29.593s1.062-2.113-1.18-.118c-3.183 2.135-3.5 2.34-4.35.7-11.5-18.012 25.825 1.32 24.585-14.6-3.11-3.166-2.895 6.491-12.939 3.765-8.323-3.306-15.231-.971-16.709 8.72" data-name="Path 1764"/><path d="M1486.884 640.454c-3.11-2.684-7.252.12-3.77 2.006 1.568 2.891 3.9-1.871 3.77-2.006" data-name="Path 1765"/><path d="M1491.823 640.451c-.86-1.029-4.993.632-3.41 3.062 1.651 1.389 4.351-.627 3.41-3.062" data-name="Path 1766"/><path d="M1493.589 644.935c1.423 1.679 4.981-1.533 4.006-2.595-2.927-3.489-8.038.057-4.006 2.595" data-name="Path 1767"/><path d="M1499.353 641.396c.15 3.659 6.838 2.462 4.473-.7-3.569-.624-10.31-2.552-4.473.7" data-name="Path 1768"/><path d="M1517.243 643.051c9.25-1.2-5.722-3.954-8.118-2.244-4.909 2.155 5.719 3.292 8.118 2.244" data-name="Path 1769"/><path d="M1528.193 641.396c7.46 2.067 10.4-4.663 3.174-.706-1.292-.9-7.379.421-3.174.706" data-name="Path 1770"/><path d="M1523.828 639.632c-3.767 4.146-1.649 2.139 1.654 2 .946-.4-.23-3.245-1.654-2" data-name="Path 1771"/><path d="M1533.728 644.576a1.68 1.68 0 0 0 .459-.113l-.459.113" data-name="Path 1772"/><path d="M1527.948 651.75c2.437-.456 11.94-4.6 7.3-7.417-3.829.336-9.44 3.21-7.3 7.417" data-name="Path 1773"/><path d="M1537.008 645.752c2.81-.825 8.974-2.494 10.833-5.185-2.909-.684-17.242-.185-10.833 5.185" data-name="Path 1774"/><path d="M1505.468 648.926c2.979.675 11.859 3.861 5.775-2.239-2.214-2.427-11.789-.12-5.775 2.239" data-name="Path 1775"/><path d="M1538.714 606.114c-1.891-.163-3.785 1.542-5.113-1-3.837.411.789 3.851 4.606 1.364 1.324-.534 3.36 5.382 2.242 1.006-.373-1.627.378-.5.877-1 .5-.49-1.869-.118-2.612-.368" data-name="Path 1776"/><path d="M1528.247 605.117c.837-1.367-.726-4.45-3.242-2.485-2.907 1.167 1.1 3.781 3.242 2.485" data-name="Path 1777"/><path d="M1503.837 544.349c-1.619 1.131.879-.372 0 0" data-name="Path 1778"/><path d="M1506.708 536.878c-2.016 7.205-9.33 9.968-11.963 15.691 5.847-3.8 13.272-8.913 11.963-15.691" data-name="Path 1779"/><path d="M1508.031 512.152c2.961 13.165 1.049 4.58 7.776 7.941-9.25 2.257 2.608 7.449 2.815 2.033-5.957-9.661 6.036-9.295 2.392-21.889-10.585-5.424-9.543 1.542-9.8 11.122-1.564 1.008-3.574-2.282-3.183.793" data-name="Path 1780"/><path d="M1516.159 526.802c-6.481-1.633-8.225-4.821-3.531 1.413 2.175 8.3 5.749 2.1 3.531-1.413" data-name="Path 1781"/><path d="M1521.448 522.563c-5.708-.29 1.505 3.253 1.241 5.387 2.009.38-1.348-3.54-.352-3.622 3.772 1.534-.043-1.328-.888-1.765" data-name="Path 1782"/><path d="M1524.539 521.758c-6.692-1.48 3.761 7.95 6.362 9.283 2.565-4.434-4.087-2.815-1.158-6.355-3.7-5.359-3.2 2.306-5.2-2.928" data-name="Path 1783"/><path d="M1530.809 522.828c-1.566 1.542.791 3.679 1.684 2.124.405-1.383-.655-2.647-1.684-2.124" data-name="Path 1784"/><path d="M1531.162 525.394c-1.242 0 .71.166 0 0" data-name="Path 1785"/><path d="M1520.309 533.247c3.564-2.853-1.565-4.7-1.328-.793 1.515 5.617 1.014 4.6.083 9.711 2.247-2.761 3.053.7 3.883-2.206 8.66-6.169-4.505-2.655-2.638-6.713" data-name="Path 1786"/><path d="M1527.101 546.053c4.13-3.662 4.1-13.617.27-2.743-2.5.978 2.505-5.215-1.592-4.585-2.407 1.022-1.148 3-1.858 4.762-3.818 2.338-.773 3.694 1.59 5.73.582-.721-1-6.3 1.411-4.323.081-.289-.182 3.633.179 1.159" data-name="Path 1787"/><path d="M1529.385 546.482c1.49 1.3 2.923-.289 3.986-1.49.944-3.995-6.276-.458-3.986 1.49" data-name="Path 1788"/><path d="M1538.308 532.544c-.99-3.837-5.092-1.772-6.706-1.767.11 1.793 2.541 2.359 2.2 4.151-5.65 5.647 2.505 3.34.26 8.295.438 2.793 3.282-.48 2.919-1.761-.064-.965-2.705-3.418-.885-3 4.74 1.627 1.314-3.885 2.211-5.915" data-name="Path 1789"/><path d="M1518.804 525.477c-.614 1.163.158 2.006.971 1.767.633-.957-.309-2.011-.971-1.767" data-name="Path 1790"/><path d="M1525.167 534.396c2.161 1.389 2.127-.825 2.2-1.853 2.313.982 1.322 3.727 3.17.083-8.161-6.478-2.958-4.19-5.371 1.77" data-name="Path 1791"/><path d="M1536.538 568.111c-.866.067-.207.234 0 0" data-name="Path 1792"/><path d="M1539.193 545.605c-1.742 2.009-3.692 6.459-7.24 6.26-3.493 6.759-1.065-5.751-8.387 2.475-4.486-1.214-5.017 10.145-3.092 8.921.742-.9.013-1.292-.525-1.855.939-1.818 1.4-1.188 1.416-2.922.132-3.044 2.272-1.51 3.8-1.309 1.3-2.947 1.528 2.971 2.561-.359-.859-2.265 3.343-1.025 3.08.788.052 1.218-1.526 2.962-.619 4.947-.015 3.719 5.427 2.022 6.271 4.5.076 3.18 3.012-1.813 2.821-2.217-1-1.915-2.206-5.194.083-4.229 1.215-5.268 1.044 3.239 1.943 2.824 3.458-6.18 2.172-12.929-2.11-17.827" data-name="Path 1793"/><path d="M1538.388 541.897c-.429-.86-.193 2.81.523 2.478.766-.764.419-1.8-.523-2.478" data-name="Path 1794"/><path d="M1540.697 544.192c-.836.514.021 1.786.611 1.861.962.008.951-2.652-.611-1.861" data-name="Path 1795"/><path d="M1514.478 565.022c-2.394.7.834 1.55 1.407 1.855 1.545-.872-.1-3.416-1.407-1.855" data-name="Path 1796"/><path d="M1518.543 566.173c.7.268.08 1.584.7.268 1.019-3.155-1.872-1.105-.7-.268" data-name="Path 1797"/><path d="M1545.621 573.583c-2.486-1.2-1.656 3.67-1.314 3.628.82-.619 2.611-3.154 1.314-3.628" data-name="Path 1798"/><path d="M1510.421 476.229c3.737 11.768 12.758-17.659 5.907-13.862-3.834 2.5-8.232 9.162-5.907 13.862" data-name="Path 1799"/><path d="M1305.907 549.972c-10.369-16.232-9.32 19.52-.813 15.61 6.39-3.971 3.414-11.1.813-15.61" data-name="Path 1800"/><path d="M1436.731 607.11c-1.29-4.658-8.167-1.515.722 4.727 3.233 3.177-.856-3.234-.722-4.727" data-name="Path 1801"/><path d="M1447.705 612.709c.708-3.9-5.205-2.934-3 .317.464.587 3.346 1.383 3-.317" data-name="Path 1802"/><path d="M1539.721 638.938c.59-1.07 2.244-.131 4.24-.6 5.574-2.542-5.4-3.072-4.24.6" data-name="Path 1803"/><path d="M1544.186 413.798c-1.791-.38-3.523 2.832-.467 2.356 2.268-.22 2.505-2.258.467-2.356" data-name="Path 1804"/><path d="M1607.416 635.279s-.225-.046-.523-.081c.1.335.523.081.523.081" data-name="Path 1805"/><path d="M1160.366 343.123a.772.772 0 0 0-.507-.249c.373.3.638.447.507.249" data-name="Path 1806"/><path d="m274.389 215.819-.083-.081c-.121.04-.059.065.083.081" data-name="Path 1807"/></g></svg>