<?xml version="1.0" encoding="UTF-8"?> <svg xmlns="http://www.w3.org/2000/svg" width="30" height="30" viewBox="0 0 30 30" fill="none"><g clip-path="url(#clip0_1568_7637)"><path d="M28.0877 28.6135V17.9433L17.4175 28.6135H28.0877ZM26.1125 26.6384H21.958L26.1125 22.4838V26.6384ZM-0.971619 -0.445801V10.2244L9.69859 -0.445801H-0.971619ZM1.0035 1.52932H5.15807L1.0035 5.66119V1.52932ZM16.6683 9.58873V1.52932H12.9678V9.42981L12.6726 9.47522C12.264 9.54333 11.878 9.67954 11.5148 9.86116L11.0153 10.1109V-0.445801H18.4391L22.5709 3.68607L21.118 5.13903L18.6434 2.64175V7.61361L16.6683 9.58873ZM28.0877 9.20279V16.6265H17.531L17.7807 16.1044C17.9623 15.7411 18.0985 15.3325 18.1666 14.9238L18.212 14.6287H26.1125V10.9736H18.0531L20.0282 8.99846H24.9774L22.5028 6.52389L23.9558 5.07092L28.0877 9.20279ZM15.6013 18.2838L16.1007 18.0341V28.6135H8.67697L4.5451 24.4816L5.99807 23.0286L8.47265 25.5032V20.5541L10.4478 18.5789V26.6384H14.1483V18.7379L14.4434 18.6925C14.8294 18.6016 15.238 18.4881 15.6013 18.2838ZM4.61321 21.6438L3.16025 23.0968L-0.971619 18.9649V11.5184H9.58507L9.33534 12.0406C9.15372 12.4038 9.01751 12.8125 8.9494 13.2211L8.904 13.5163H1.0035V17.2168H9.06291L7.08779 19.1919H2.11593L4.61321 21.6438ZM16.4412 14.0838C16.4412 15.673 15.1472 16.9671 13.558 16.9671C11.9688 16.9671 10.6748 15.673 10.6748 14.0838C10.6748 12.4947 11.9688 11.2006 13.558 11.2006C15.1472 11.2006 16.4412 12.4947 16.4412 14.0838Z" fill="#000"></path></g><defs><clipPath id="clip0_1568_7637"><rect width="29.0593" height="29.0593" fill="white" transform="translate(0.445923 0.262939)"></rect></clipPath></defs></svg> 